<?xml version="1.0" encoding="utf-8"?>
<!-- Generator: Adobe Illustrator 28.1.0, SVG Export Plug-In . SVG Version: 6.00 Build 0)  -->
<svg version="1.1" id="Layer_1" xmlns="http://www.w3.org/2000/svg" xmlns:xlink="http://www.w3.org/1999/xlink" x="0px" y="0px"
	 viewBox="0 0 100 100" style="enable-background:new 0 0 100 100;" xml:space="preserve">
<path style="fill:#69CC00;" d="M63.5,19.9c0.59-2.11,1.47-4.15,2.65-6c0.82,0.24,1.45,0.8,1.5,1.7c0.64,2.66,0.11,5.4-0.28,8.06
	c-1.14,6.91-4.7,13.23-9.42,18.34c2.4,1.03,4.99,1.44,7.45,2.29c-3.17,1.2-6.64,0.8-9.86,1.76c-2.31,0.64-4.6,1.38-6.98,1.63
	c-0.86-1.02-2.16-0.47-3.24-0.38c-7.35,1.16-15.33,1.38-22.13-2.07c-1.06-0.43-1.45-1.56-0.71-2.46c4.37,1.8,9.17,0.7,13.67,0.11
	C49.66,42,61.93,31.87,65.54,18.84C64.85,19.18,64.16,19.52,63.5,19.9z"/>
<path style="fill:#69CC00;" d="M37.29,31.88c-0.88-3.67,0.92-8.16,4.61-9.5c3.95-1.4,9.05,1.17,9.39,5.59
	c-0.26,4.72-5.46,7.58-9.8,6.89C39.77,34.45,38.3,33.31,37.29,31.88z"/>
<path style="fill:#69CC00;" d="M48.63,49.85c5.15-2.49,10.96-3,16.59-3.27c9.01,0.61,17.66,4.9,23.83,11.47
	c0.82,0.85,1.23,1.98,1.6,3.08c-0.04,1.02-1.24,0.98-1.9,0.62c-8.05-4-17.45-4.19-26.16-2.75c-15.33,3.17-29.95,11.28-39.46,23.89
	c-1.69,1.94-2.81,4.32-4.65,6.12c-1.08,0.63-1.18-0.83-1.25-1.51c-0.27-3.52,1.16-6.84,2.4-10.05l0.13-0.05
	c0.16-0.07,0.47-0.21,0.63-0.28c2.09-2.48,3.74-5.28,5.37-8.08C31.8,61.05,39.43,53.98,48.63,49.85z"/>
<path style="fill:#C8FF88;" d="M37.29,31.88c-2.7-3.87-0.89-9.92,3.65-11.39c4.83-2.02,10.99,2.11,10.35,7.47
	c-0.34-4.42-5.44-6.98-9.39-5.59C38.21,23.71,36.41,28.21,37.29,31.88z"/>
<path style="fill:#C8FF88;" d="M63.5,19.9c0.66-0.38,1.35-0.72,2.04-1.06C61.93,31.87,49.66,42,36.14,42.89
	c-4.5,0.58-9.29,1.68-13.67-0.11c9.08-0.81,18.69-1.05,26.78-5.76C55.61,32.93,60.36,26.7,63.5,19.9z"/>
<path style="fill:#C8FF88;" d="M36.54,54.64c3.74-2.71,7.64-5.45,12.02-6.96c2.39-0.25,4.68-0.99,6.98-1.63
	c3.22-0.97,6.68-0.57,9.86-1.76c7.2,0.64,13.95,4.24,19.42,8.87c2.36,2.26,5.4,4.48,5.83,7.96c-0.37-1.1-0.78-2.23-1.6-3.08
	c-6.17-6.57-14.82-10.85-23.83-11.47c-5.63,0.28-11.43,0.78-16.59,3.27c-9.2,4.14-16.83,11.2-22.87,19.18
	c-1.62,2.8-3.28,5.6-5.37,8.08c-0.16,0.07-0.47,0.21-0.63,0.28C23.45,68.63,29.13,60.63,36.54,54.64z"/>
</svg>
