<?xml version="1.0" encoding="utf-8"?>
<!-- Generator: Adobe Illustrator 28.1.0, SVG Export Plug-In . SVG Version: 6.00 Build 0)  -->
<svg version="1.1" id="Layer_1" xmlns="http://www.w3.org/2000/svg" xmlns:xlink="http://www.w3.org/1999/xlink" x="0px" y="0px"
	 viewBox="0 0 100 100" style="enable-background:new 0 0 100 100;" xml:space="preserve">
<g>
	<path style="fill:#FE366E;" d="M-111.89,117.2c1.7-2.01,2.8-5.07,5.76-5.42c0.17,6.07-4.01,11.04-6.75,16.11
		c-11.46,19.11-32.17,32.77-54.61,34.13c-8.93,0.14-18.21-0.14-26.66-3.21c1.05-1.19,2.34-1.9,3.86-2.13
		c10.39-1.24,20.54-4.72,29.46-10.17c4.01-2.27,6.63-6.73,6.97-11.25c-2.86-5.19-7.64-8.96-10.9-13.87
		c-1.05-1.27-0.88-2.94-0.94-4.45c4.51,0.47,7.05,4.7,10.53,7.11c6.26,4.61,13.44,9.65,21.57,9.21
		C-124.3,131.71-117.22,124.5-111.89,117.2z"/>
	<path style="fill:#FE366E;" d="M-132.4,105.91c3.56,0.59,7.5,2.7,8.34,6.52c0.7,3.59,0.48,7.94-2.24,10.67
		c-4.84,3.56-13.61,1.76-15.11-4.54C-143.72,112.73-138.99,105.04-132.4,105.91z"/>
</g>
<path style="fill:#01CEF4;" d="M-265.1,112.87c3.01-6.61,9.93-12.66,17.69-11.25c3.73,0.52,6.18,3.48,8.69,5.98l0.19,0.18
	c0.88,3.27,0.61,6.9-0.84,9.97c-2.23,3.57-5.92,6.59-10.26,6.87c-3.69,0.2-7.82,0.04-10.78-2.45
	C-263.25,119.94-264.88,116.41-265.1,112.87z"/>
<path style="fill:#76EFFF;" d="M-259.73,101.83c4.27-3.65,10.8-3.95,15.6-1.15c2.58,1.55,4.28,4.18,5.4,6.91
	c-2.5-2.5-4.96-5.46-8.69-5.98c-7.75-1.41-14.67,4.64-17.69,11.25C-265.08,108.6-263.18,104.4-259.73,101.83z"/>
<path style="fill:#01CEF4;" d="M-216.58,104.05c0.89,0.37,1.67,1.04,1.89,2.05c2.62,7.77,0.69,16.15-2.46,23.45
	c-5.23,11.64-13.35,22.22-24.14,29.19c-13.32,9.14-31.64,12.6-46.6,5.47c-2.77-1.52-5.89-2.84-7.76-5.51
	c6.14,1.39,8.5,1.69,12.77,1.92c10.92,0.6,21.69-1.82,30.75-7.68c-0.21-0.1-0.56-0.16-0.77-0.26l-1.42-0.3
	c-8.64-1.6-14.12-3.1-19.33-8.1c-3.74-3.96-7.52-8.93-6.91-14.69c9.46,7.58,22.75,10.05,34.29,6.29c5.52-1.36,10.18-4.71,14.72-7.97
	c5.42-4.07,10.07-9.26,13.23-15.27c1.34-2.45,1.54-5.28,1.68-8L-216.58,104.05z"/>
<path style="fill:#76EFFF;" d="M-216.62,104.66c-0.14,2.72-0.34,5.55-1.68,8c-3.16,6.01-7.81,11.2-13.23,15.27
	c-4.54,3.26-9.2,6.61-14.72,7.97c-11.54,3.76-24.83,1.29-34.29-6.29c1.21-0.89,2.51,0.4,3.66,0.8c6.67,3.73,14.49,5.3,22.09,4.68
	c11.92-1.59,22.64-8.59,30.23-17.73C-221.25,113.56-219.16,108.95-216.62,104.66z"/>
<g>
	<path style="fill:#FFF5B0;" d="M83.9,26.89c2.23-1.06,4.44-2.38,6.98-2.47c-1.47,3-4.32,4.76-7.17,6.25
		c-9.75,5.9-21.21,7.75-32.3,9.41c-6.68,1.05-13.89-0.98-20.11,2.36c-5.49,2.65-10.8,6.81-13.27,12.5
		c-0.19-0.03-0.59-0.09-0.79-0.12c-0.12-0.04-0.35-0.12-0.47-0.16c1.36-0.8,1.98-2.31,2.92-3.51c3.98-5.47,8.99-10.62,15.45-13.03
		c5.51-1.27,11.25-0.05,16.82-0.87C63.07,35.52,73.86,31.91,83.9,26.89z"/>
	<path style="fill:#FFCD01;" d="M90.88,24.42c0.34,2.14,0.54,4.56-1.21,6.18c-9.06,9.9-21.47,15.75-33.62,20.91
		c-9.82,4.03-19.1,9.37-27.43,15.94c-5.34,4.26-9.78,9.49-14.29,14.59c-1.89-0.46-2.96-1.99-2.93-3.9
		c-0.84-8.17,2.14-16.12,5.51-23.41l0.34,0.08c0.19,0.03,0.59,0.09,0.79,0.12c2.47-5.69,7.77-9.85,13.27-12.5
		c6.22-3.33,13.43-1.3,20.11-2.36c11.09-1.66,22.55-3.51,32.3-9.41C86.56,29.17,89.41,27.42,90.88,24.42z"/>
</g>
<g>
	<path style="fill:#FFF5B0;" d="M-168.69,50.66c5.37-4.7,14.35-4.06,19.24,1.01c3.97,4.54,4.45,11.82,0.63,16.63
		c1.8-3.93,0.18-8.5-1.97-11.95c-1.82-3.1-5.51-4.28-8.86-4.76c-6.69-0.79-12.66,5.27-13.18,11.72
		C-173.66,58.77-172.4,53.63-168.69,50.66z"/>
	<path style="fill:#FFCD01;" d="M-159.64,51.59c3.35,0.48,7.03,1.66,8.86,4.76c2.15,3.45,3.77,8.02,1.97,11.95
		c-4.03,4.31-10.62,6.32-16.19,3.95c-4.09-1.19-7.11-4.79-7.82-8.95C-172.3,56.86-166.33,50.8-159.64,51.59z"/>
</g>
<path style="fill:#FFF5B0;" d="M-12.32,157.96c-0.76-7.4-4.18-14.22-8.33-20.28c-7.16-9.69-18.26-16.44-30.18-18.3
	c-9.34-1.21-19.11,0.26-27.44,4.76c-11.06,5.64-19.53,16.16-22.53,28.23c0.15,0.27,0.46,0.82,0.62,1.1
	c0.99-2.25,2.42-4.27,3.44-6.51c4.6-9.84,13.7-16.83,23.39-21.25c8.18-3.73,17.64-3.77,26.21-1.38c0.01,1.26,0.25,2.64-0.52,3.75
	c-1.72,2.8-3.77,5.37-5.75,7.99c-1.28,1.7-3.36,2.8-4.15,4.85c4.77-4.1,9.24-8.56,13.02-13.6c0.43-0.54,0.87-1.07,1.34-1.58
	c1.31,0.36,2.66,0.48,4.02,0.48c-0.26,0.7-0.52,1.39-0.78,2.09c-1.73,4.31-5.19,7.57-8.3,10.9c-3.34,3.29-6.75,6.56-10.49,9.41
	c-2.32,1.8-4.54,3.8-6.29,6.18c0.26-0.01,0.79-0.05,1.05-0.06c2.6-1.89,5.6-3.25,7.56-5.91c5.32-4.46,10.25-9.35,15.04-14.36
	c1.64-1.81,2.87-3.94,4.17-5.99c11.49,5.74,19.19,17.11,22.98,29.12c1.92,5.14,1.39,10.7,1.45,16.08
	C-11.99,168.49-11.73,163.19-12.32,157.96z"/>
<path style="fill:#FFF5B0;" d="M-101.03,161.39c5.8-4.96,13.76-6.65,21.23-6.51c6.31-0.08,12.16,2.96,17.17,6.56
	c7.03,5.11,12.86,11.77,17.35,19.19c-5.33-6.57-10.58-13.41-17.63-18.25c-2.6-2.24-6.03-2.91-9.01-4.45
	c-4.69-2.83-10.46-1.9-15.58-1.03c-5.6,1.58-11.67,3.65-15.15,8.63C-102.87,163.91-102.35,162.36-101.03,161.39z"/>
<path style="fill:#FFCD01;" d="M-73.35,125.7c8.18-3.73,17.64-3.77,26.21-1.38c0.01,1.26,0.25,2.64-0.52,3.75
	c-1.72,2.8-3.77,5.37-5.75,7.99c-1.28,1.7-3.36,2.8-4.15,4.85l-0.08,0.19c-3.93,3.48-8.01,6.81-12.18,9.99
	c-1.19,1.18-2.81,0.19-4.19-0.03c-8.06-2.03-16.78-0.94-24.21,2.72c-1.23,0.68-2.27,1.63-3.39,2.47c0.24-1.3,0.52-2.6,0.83-3.88
	c0.15,0.27,0.46,0.82,0.62,1.1c0.99-2.25,2.42-4.27,3.44-6.51C-92.13,137.12-83.04,130.13-73.35,125.7z"/>
<path style="fill:#FFCD01;" d="M-41.4,134.47c1.64-1.81,2.87-3.94,4.17-5.99c11.49,5.74,19.19,17.11,22.98,29.12
	c1.92,5.14,1.39,10.7,1.45,16.08c-1.6,9.04-6.03,17.55-12.16,24.35c-2.24,2.17-4.49,4.48-7.31,5.88
	c-0.79-8.72-3.99-17.02-8.28-24.59c-3.2-5.96-7.52-11.24-12.28-16.01c-3.36-3.29-7.01-6.35-11.18-8.56c2.6-1.89,5.6-3.25,7.56-5.91
	C-51.12,144.38-46.2,139.48-41.4,134.47z"/>
<path style="fill:#FFCD01;" d="M-87.49,156.89c5.12-0.87,10.88-1.8,15.58,1.03c2.98,1.55,6.4,2.21,9.01,4.45
	c7.05,4.84,12.3,11.68,17.63,18.25c1.09,1.23,1.73,2.78,2.49,4.24c1.7,3.46,3.54,6.9,4.51,10.65c0.98,3.49,1.61,7.07,2.23,10.64
	c-8.25,4.89-18.26,6.33-27.7,5.14c-10.75-1.63-21.2-7.41-27.32-16.46c-1.11-11.16,4.83-21.5,12.15-29.42
	c1.69-2.17,4.03-3.8,5.42-6.2c-1.96-1.46-4.58-0.8-6.2,0.84c-6.69,6.15-12.38,13.82-14.58,22.76c-0.64,2.21-0.48,4.59-1.32,6.75
	c-4.69-7.09-7.13-15.55-7.04-24.04C-99.16,160.53-93.09,158.46-87.49,156.89z"/>
<path style="fill:#FFF5B0;" d="M-327.85,174.93c-0.07-3.49,1.98-6.92,5.16-7.98c4.11-1.78,8.85-0.14,12.73,2.04
	c8.58,4.86,16.61,11.15,26.01,14.07c-8.23-1.96-15.94-6.08-23.46-10.18c-3.7-1.9-7.6-4.09-11.75-3.74c-4.16,0.28-7.2,4.03-8.01,8.06
	c0.52,2.71,2.05,5.22,3.68,7.44C-325.86,181.97-327.86,178.57-327.85,174.93z"/>
<path style="fill:#FFCD01;" d="M-327.17,177.21c0.82-4.03,3.85-7.78,8.01-8.06c4.15-0.35,8.05,1.84,11.75,3.74
	c7.52,4.1,15.22,8.22,23.46,10.18c2.35,0.63,4.75,1.21,6.9,2.47c-7.37,4.04-15.92,5.35-24.32,5.76c-7.61,0-15.85-1.42-22.14-6.65
	C-325.12,182.42-326.65,179.92-327.17,177.21z"/>
<path style="fill:#C8FF88;" d="M-130.61,193.89c-5.7-4.06-12.34-6.71-19.26-7.71c-14.62-2.54-29.65,0.56-44.16-2.85
	c-8.56-2.03-17.18-5.69-23.01-12.51c-0.28,0.12-0.86,0.34-1.15,0.45c2.52,2.02,3.62,5.35,6.4,7.15c11.57,8.1,26.15,9.95,39.93,10.01
	c12.77,0.08,26.29,0.49,37.65,7.04c3.54,2.39,6.7,5.34,9.15,8.86l0.38,0.5C-124.08,200.42-127.47,196.55-130.61,193.89z"/>
<path style="fill:#69CC00;" d="M-171.86,188.42c12.77,0.08,26.29,0.49,37.65,7.04c3.54,2.39,6.7,5.34,9.15,8.86l-0.29,0.99
	c-4.9-1.17-9.77-2.54-14.8-3.05c-11.76-1.29-23.52,0.72-35.28,0.85c-12.26-0.45-25.57-2.96-34.51-12.02
	c-4.88-5.41-9.65-12.36-8.48-20.03l0.23,0.2c2.52,2.02,3.62,5.35,6.4,7.15C-200.23,186.51-185.65,188.36-171.86,188.42z"/>
<circle style="fill:#FE366E;" cx="-248.86" cy="184.56" r="8.33"/>
<circle style="fill:#01CEF4;" cx="-66.31" cy="97.82" r="8.36"/>
<circle style="fill:#FE366E;" cx="10.92" cy="188.07" r="8.33"/>
<path style="fill:#69CC00;" d="M-103.83,246.97c0.59-2.11,1.47-4.15,2.65-6c0.82,0.24,1.45,0.8,1.5,1.7
	c0.64,2.66,0.11,5.4-0.28,8.06c-1.14,6.91-4.7,13.23-9.42,18.34c2.4,1.03,4.99,1.44,7.45,2.29c-3.17,1.2-6.64,0.8-9.86,1.76
	c-2.31,0.64-4.6,1.38-6.98,1.63c-0.86-1.02-2.16-0.46-3.24-0.38c-7.35,1.16-15.33,1.38-22.13-2.07c-1.06-0.43-1.45-1.56-0.71-2.46
	c4.37,1.8,9.17,0.7,13.67,0.11c13.52-0.89,25.79-11.01,29.4-24.05C-102.48,246.25-103.17,246.59-103.83,246.97z"/>
<path style="fill:#69CC00;" d="M-130.04,258.95c-0.88-3.67,0.92-8.16,4.61-9.5c3.95-1.4,9.05,1.17,9.39,5.59
	c-0.26,4.72-5.46,7.58-9.8,6.89C-127.56,261.52-129.03,260.38-130.04,258.95z"/>
<path style="fill:#69CC00;" d="M-118.7,276.92c5.15-2.49,10.96-3,16.59-3.27c9.01,0.61,17.66,4.9,23.83,11.47
	c0.82,0.85,1.23,1.98,1.6,3.08c-0.04,1.02-1.24,0.98-1.9,0.62c-8.05-4-17.45-4.19-26.16-2.75c-15.33,3.17-29.95,11.28-39.46,23.89
	c-1.69,1.94-2.81,4.32-4.65,6.12c-1.08,0.63-1.18-0.83-1.25-1.51c-0.27-3.52,1.16-6.84,2.4-10.05l0.13-0.05
	c0.16-0.07,0.47-0.21,0.63-0.28c2.09-2.48,3.74-5.28,5.37-8.08C-135.53,288.12-127.9,281.06-118.7,276.92z"/>
<path style="fill:#C8FF88;" d="M-130.04,258.95c-2.7-3.87-0.89-9.92,3.65-11.39c4.83-2.02,10.99,2.11,10.35,7.47
	c-0.34-4.42-5.44-6.98-9.39-5.59C-129.13,250.79-130.92,255.28-130.04,258.95z"/>
<path style="fill:#C8FF88;" d="M-103.83,246.97c0.66-0.38,1.35-0.72,2.04-1.06c-3.61,13.04-15.88,23.16-29.4,24.05
	c-4.5,0.58-9.29,1.68-13.67-0.11c9.08-0.81,18.69-1.05,26.78-5.76C-111.72,260.01-106.98,253.77-103.83,246.97z"/>
<path style="fill:#C8FF88;" d="M-130.79,281.72c3.74-2.71,7.64-5.45,12.02-6.96c2.39-0.25,4.68-0.99,6.98-1.63
	c3.22-0.97,6.68-0.57,9.86-1.76c7.2,0.64,13.95,4.24,19.42,8.87c2.36,2.26,5.4,4.48,5.83,7.96c-0.37-1.1-0.78-2.23-1.6-3.08
	c-6.17-6.57-14.82-10.85-23.83-11.47c-5.63,0.28-11.43,0.78-16.59,3.27c-9.2,4.14-16.83,11.2-22.87,19.18
	c-1.62,2.8-3.28,5.6-5.37,8.08c-0.16,0.07-0.47,0.21-0.63,0.28C-143.88,295.7-138.21,287.7-130.79,281.72z"/>
</svg>
