<?xml version="1.0" encoding="utf-8"?>
<!-- Generator: Adobe Illustrator 28.1.0, SVG Export Plug-In . SVG Version: 6.00 Build 0)  -->
<svg version="1.1" id="Layer_1" xmlns="http://www.w3.org/2000/svg" xmlns:xlink="http://www.w3.org/1999/xlink" x="0px" y="0px"
	 viewBox="0 0 100 100" style="enable-background:new 0 0 100 100;" xml:space="preserve">
<g>
	<path style="fill:#01CEF4;" d="M30.38,19.79c10.74-4.34,23.47-6.57,34.26-1.18c4.95,2.54,10.29,5.44,12.92,10.6
		c-6.64-0.56-13.07,2.22-18.07,6.43c-4.76-4.54-9.96-8.78-16.26-11c-3.37-1.56-7.1-1.89-10.65-2.78
		C31.82,21.17,31.09,20.48,30.38,19.79z"/>
	<path style="fill:#01CEF4;" d="M14.76,38.45c1.98-3.27,4.45-7.12,8.68-7.37c5.38-0.48,10.84-0.23,16.2,0.46
		c3.67,0.4,6.89,2.48,10.51,3.06l0.36,0.06c1.57,1.02,2.86,2.38,3.75,4.04c-3.25,3.45-7.05,6.38-9.96,10.16
		c-4.82,6.39-8.91,13.68-9.82,21.76c-0.71,5.23-0.07,10.51,0.72,15.69C21.13,80.68,10.46,66.38,10.57,51
		C11.32,46.65,12.35,42.23,14.76,38.45z"/>
	<path style="fill:#01CEF4;" d="M63.94,41.26c4.88-2.5,10.4-4.52,15.97-3.83c3.52,0.33,5.3,3.69,7.01,6.33
		c2.4,3.48,1.41,7.95,1.82,11.92c-1.2,6.71-4.16,13.12-8.25,18.55c-0.61-8.28-3.29-16.5-8.21-23.24
		C69.89,47.42,66.72,44.51,63.94,41.26z"/>
	<path style="fill:#76EFFF;" d="M22.83,21.86c7.26-7.36,17.74-10.63,27.92-10.64c12.98-0.34,25.56,6.78,32.5,17.64
		c5.59,7.67,7.51,17.57,5.5,26.82c-0.41-3.97,0.57-8.44-1.82-11.92c-1.71-2.64-3.5-6-7.01-6.33c-5.57-0.69-11.09,1.33-15.97,3.83
		l-0.48,0.24c-0.06-1.86,1.84-2.33,3.15-3.06c4.63-2.29,9.7-3.42,14.81-3.99c-0.66-2.2-2.36-3.65-3.87-5.24
		c-2.62-5.16-7.97-8.06-12.92-10.6c-10.78-5.38-23.52-3.16-34.26,1.18c0.71,0.69,1.44,1.38,2.2,2.07c-4.49-0.73-8.2,2.24-10.24,5.97
		c9.68-0.97,20.05,0.49,27.82,6.78c-3.63-0.58-6.84-2.66-10.51-3.06c-5.36-0.68-10.82-0.94-16.2-0.46c-4.24,0.25-6.7,4.1-8.68,7.37
		c-2.4,3.78-3.43,8.2-4.19,12.55C9.77,39.99,14.58,29.11,22.83,21.86z"/>
	<path style="fill:#76EFFF;" d="M42.9,61.6c3.62-7.46,9.75-13.31,16.12-18.42c1.69,1.58,3.33,3.24,4.77,5.08
		c-1.41-0.52-2.38-1.74-3.39-2.75C53.84,50.04,48.18,55.65,42.9,61.6z"/>
	<path style="fill:#01CEF4;" d="M64.09,48.4l-0.29-0.14c-1.41-0.52-2.38-1.74-3.39-2.75C53.84,50.04,48.18,55.65,42.9,61.6
		c-4.47,7.5-4.17,16.81-3.3,25.24c0.53,0.61,1.18,0.98,1.98,1.14c8.54,1.62,17.83,0.98,25.53-3.32l0.3,0.19
		c2.96-2.05,6.83-3.5,8.5-6.9C76.13,67,70.57,56.88,64.09,48.4z"/>
</g>
</svg>
