<?xml version="1.0" encoding="utf-8"?>
<!-- Generator: Adobe Illustrator 28.1.0, SVG Export Plug-In . SVG Version: 6.00 Build 0)  -->
<svg version="1.1" id="Layer_1" xmlns="http://www.w3.org/2000/svg" xmlns:xlink="http://www.w3.org/1999/xlink" x="0px" y="0px"
	 viewBox="0 0 100 100" style="enable-background:new 0 0 100 100;" xml:space="preserve">
<g>
	<path style="fill:#C8FF88;" d="M15.84,62.22c3.69-4.52,8.46-8.1,13.81-10.42c11.2-5.25,23.97-6.05,34.9-11.97
		c6.44-3.51,12.57-8.34,15.77-15.11c0.25,0.03,0.77,0.09,1.02,0.11c-1.58,2.18-1.74,5.1-3.58,7.15
		c-7.53,9.05-18.85,13.73-29.93,16.8c-10.26,2.87-21.04,6.15-28.74,13.91c-2.32,2.7-4.22,5.77-5.42,9.13l-0.19,0.48
		C12.01,68.9,13.89,65.05,15.84,62.22z"/>
	<path style="fill:#69CC00;" d="M47.82,48.78c-10.26,2.87-21.04,6.15-28.74,13.91c-2.32,2.7-4.22,5.77-5.42,9.13l0.45,0.73
		c3.68-2.01,7.3-4.18,11.24-5.69c9.18-3.61,19.08-4.58,28.57-7.05c9.76-3.04,19.92-7.98,25.13-17.23
		c2.74-5.42,5.05-12.06,2.43-17.97l-0.14,0.21c-1.58,2.18-1.74,5.1-3.58,7.15C70.22,41.03,58.9,45.71,47.82,48.78z"/>
</g>
</svg>
