<?xml version="1.0" encoding="utf-8"?>
<!-- Generator: Adobe Illustrator 28.1.0, SVG Export Plug-In . SVG Version: 6.00 Build 0)  -->
<svg version="1.1" id="Layer_1" xmlns="http://www.w3.org/2000/svg" xmlns:xlink="http://www.w3.org/1999/xlink" x="0px" y="0px"
	 viewBox="0 0 100 100" style="enable-background:new 0 0 100 100;" xml:space="preserve">
<style type="text/css">
	.st0{fill:#CBDF83;}
	.st1{fill:#71BF44;}
</style>
<g>
	<path class="st0" d="M46.75,30.96c1.75-2.92,5.19-4.58,8.55-4.68c6.89-0.2,13.4,4.26,16.44,10.32c-4.15-1.54-7.21-5.08-11.43-6.54
		c-4.27-1.9-9.1-0.58-12.93,1.72c-0.91,1.27-0.38,3.03-0.65,4.49C46.41,34.54,45.77,32.61,46.75,30.96z"/>
	<path class="st1" d="M47.38,31.79c3.83-2.3,8.66-3.62,12.93-1.72c4.22,1.46,7.28,4.99,11.43,6.54l0.2,0.08
		c5.8,11.34,2.09,26.78-8.81,33.62c-7.61,4.34-17.8,4.81-25.29-0.05c-8.33-5-13.17-14.96-12.43-24.57c0.27-3.47,2.13-6.99,5.35-8.54
		c2.29-0.7,3.84,1.76,4.9,3.4c-2.44,5.04-0.39,10.9,2.38,15.35c4.39,7.15,15.58,7.5,21.27,1.76c5.85-4.67,5.22-15.21-1.38-18.92
		c-3.4-2.12-7.56-1.21-11.21-2.46C47,34.81,46.47,33.06,47.38,31.79z"/>
</g>
</svg>
