<?xml version="1.0" encoding="utf-8"?>
<!-- Generator: Adobe Illustrator 28.1.0, SVG Export Plug-In . SVG Version: 6.00 Build 0)  -->
<svg version="1.1" id="Layer_1" xmlns="http://www.w3.org/2000/svg" xmlns:xlink="http://www.w3.org/1999/xlink" x="0px" y="0px"
	 viewBox="0 0 100 100" style="enable-background:new 0 0 100 100;" xml:space="preserve">
<path style="fill:#C8FF88;" d="M83.9,26.89c2.23-1.06,4.44-2.38,6.98-2.47c-1.47,3-4.32,4.76-7.17,6.25
	c-9.75,5.9-21.21,7.75-32.3,9.41c-6.68,1.05-13.89-0.98-20.11,2.36c-5.49,2.65-10.8,6.81-13.27,12.5c-0.19-0.03-0.59-0.09-0.79-0.12
	c-0.12-0.04-0.35-0.12-0.47-0.16c1.36-0.8,1.98-2.31,2.92-3.51c3.98-5.47,8.99-10.62,15.45-13.03c5.51-1.27,11.25-0.05,16.82-0.87
	C63.07,35.52,73.86,31.91,83.9,26.89z"/>
<path style="fill:#69CC00;" d="M90.88,24.42c0.34,2.14,0.54,4.56-1.21,6.18c-9.06,9.9-21.47,15.75-33.62,20.91
	c-9.82,4.03-19.1,9.37-27.43,15.94c-5.34,4.26-9.78,9.49-14.29,14.59c-1.89-0.46-2.96-1.99-2.93-3.9
	c-0.84-8.17,2.14-16.12,5.51-23.41l0.34,0.08c0.19,0.03,0.59,0.09,0.79,0.12c2.47-5.69,7.77-9.85,13.27-12.5
	c6.22-3.33,13.43-1.3,20.11-2.36c11.09-1.66,22.55-3.51,32.3-9.41C86.56,29.17,89.41,27.42,90.88,24.42z"/>
</svg>
