<?xml version="1.0" encoding="utf-8"?>
<!-- Generator: Adobe Illustrator 28.1.0, SVG Export Plug-In . SVG Version: 6.00 Build 0)  -->
<svg version="1.1" id="Layer_1" xmlns="http://www.w3.org/2000/svg" xmlns:xlink="http://www.w3.org/1999/xlink" x="0px" y="0px"
	 viewBox="0 0 100 100" style="enable-background:new 0 0 100 100;" xml:space="preserve">
<g>
	<path style="fill:#FE366E;" d="M-92.43,208.98c-0.83-0.98-1.37-2.47-2.81-2.64c-0.08,2.96,1.95,5.38,3.29,7.85
		c5.59,9.31,15.68,15.97,26.61,16.63c4.35,0.07,8.87-0.07,12.99-1.56c-0.51-0.58-1.14-0.93-1.88-1.04
		c-5.06-0.61-10.01-2.3-14.36-4.96c-1.95-1.1-3.23-3.28-3.4-5.48c1.39-2.53,3.72-4.37,5.31-6.76c0.51-0.62,0.43-1.44,0.46-2.17
		c-2.2,0.23-3.43,2.29-5.13,3.46c-3.05,2.25-6.55,4.7-10.51,4.49C-86.39,216.05-89.83,212.54-92.43,208.98z"/>
	<path style="fill:#FE366E;" d="M-82.44,203.48c-1.74,0.29-3.65,1.31-4.06,3.18c-0.34,1.75-0.24,3.87,1.09,5.2
		c2.36,1.74,6.63,0.86,7.37-2.21C-76.92,206.81-79.23,203.06-82.44,203.48z"/>
</g>
<g>
	<path style="fill:#01CEF4;" d="M38.88,32.42c2.76-6.06,9.09-11.6,16.2-10.3c3.42,0.48,5.66,3.19,7.96,5.47l0.17,0.17
		c0.81,2.99,0.56,6.32-0.77,9.13c-2.04,3.27-5.42,6.03-9.4,6.29c-3.38,0.18-7.16,0.04-9.87-2.25C40.58,38.9,39.09,35.67,38.88,32.42
		z"/>
	<path style="fill:#76EFFF;" d="M43.81,22.31c3.91-3.34,9.89-3.62,14.28-1.05c2.37,1.42,3.92,3.82,4.95,6.33
		c-2.29-2.29-4.54-5-7.96-5.47c-7.1-1.29-13.44,4.25-16.2,10.3C38.91,28.52,40.65,24.67,43.81,22.31z"/>
	<path style="fill:#01CEF4;" d="M83.32,24.35c0.82,0.34,1.53,0.95,1.73,1.88c2.4,7.11,0.63,14.79-2.25,21.48
		c-4.79,10.66-12.22,20.35-22.11,26.73c-12.19,8.37-28.97,11.54-42.67,5.01c-2.53-1.39-5.39-2.6-7.1-5.05
		c5.62,1.28,7.78,1.55,11.7,1.76c10,0.55,19.86-1.67,28.16-7.03c-0.19-0.09-0.52-0.15-0.71-0.24l-1.3-0.27
		c-7.91-1.47-12.93-2.84-17.71-7.42c-3.42-3.62-6.88-8.18-6.33-13.46c8.66,6.94,20.83,9.2,31.41,5.76c5.05-1.25,9.32-4.31,13.48-7.3
		c4.97-3.73,9.22-8.48,12.12-13.98c1.23-2.24,1.41-4.83,1.54-7.32L83.32,24.35z"/>
	<path style="fill:#76EFFF;" d="M83.28,24.9c-0.13,2.49-0.31,5.08-1.54,7.32c-2.89,5.51-7.15,10.26-12.12,13.98
		c-4.16,2.99-8.43,6.05-13.48,7.3c-10.57,3.44-22.74,1.18-31.41-5.76c1.11-0.82,2.3,0.37,3.36,0.73c6.11,3.41,13.27,4.85,20.23,4.28
		C59.24,51.31,69.05,44.89,76,36.52C79.04,33.05,80.96,28.84,83.28,24.9z"/>
</g>
<g>
	<g>
		<path style="fill:#FFF5B0;" d="M-66.86,268.28c1.09-0.52,2.16-1.16,3.4-1.2c-0.72,1.46-2.1,2.32-3.49,3.05
			c-4.75,2.87-10.34,3.78-15.74,4.58c-3.26,0.51-6.77-0.48-9.8,1.15c-2.68,1.29-5.26,3.32-6.46,6.09c-0.09-0.02-0.29-0.04-0.38-0.06
			c-0.06-0.02-0.17-0.06-0.23-0.08c0.66-0.39,0.97-1.13,1.42-1.71c1.94-2.67,4.38-5.17,7.53-6.35c2.69-0.62,5.48-0.02,8.2-0.42
			C-77.01,272.49-71.75,270.73-66.86,268.28z"/>
		<path style="fill:#FFCD01;" d="M-63.46,267.08c0.16,1.04,0.26,2.22-0.59,3.01c-4.41,4.83-10.46,7.67-16.38,10.19
			c-4.79,1.97-9.31,4.57-13.37,7.77c-2.6,2.08-4.77,4.62-6.96,7.11c-0.92-0.22-1.44-0.97-1.43-1.9c-0.41-3.98,1.04-7.86,2.69-11.41
			l0.17,0.04c0.09,0.02,0.29,0.04,0.38,0.06c1.2-2.77,3.79-4.8,6.46-6.09c3.03-1.62,6.54-0.63,9.8-1.15
			c5.4-0.81,10.99-1.71,15.74-4.58C-65.56,269.4-64.18,268.54-63.46,267.08z"/>
	</g>
	<g>
		<path style="fill:#FFF5B0;" d="M-88.94,260.23c2.61-2.29,6.99-1.98,9.38,0.49c1.93,2.21,2.17,5.76,0.31,8.1
			c0.88-1.92,0.09-4.14-0.96-5.82c-0.89-1.51-2.68-2.08-4.32-2.32c-3.26-0.38-6.17,2.57-6.42,5.71
			C-91.37,264.18-90.75,261.67-88.94,260.23z"/>
		<path style="fill:#FFCD01;" d="M-84.53,260.68c1.63,0.24,3.43,0.81,4.32,2.32c1.05,1.68,1.84,3.91,0.96,5.82
			c-1.97,2.1-5.17,3.08-7.89,1.93c-1.99-0.58-3.46-2.33-3.81-4.36C-90.7,263.24-87.79,260.3-84.53,260.68z"/>
	</g>
</g>
<g>
	<path style="fill:#FFF5B0;" d="M-90.97,238.57c-0.37-3.61-2.04-6.93-4.06-9.88c-3.49-4.72-8.9-8.01-14.7-8.92
		c-4.55-0.59-9.31,0.13-13.37,2.32c-5.39,2.75-9.52,7.87-10.98,13.75c0.08,0.13,0.23,0.4,0.3,0.53c0.48-1.1,1.18-2.08,1.68-3.17
		c2.24-4.79,6.68-8.2,11.4-10.36c3.99-1.82,8.6-1.84,12.77-0.67c0.01,0.61,0.12,1.29-0.25,1.83c-0.84,1.36-1.84,2.62-2.8,3.89
		c-0.62,0.83-1.64,1.37-2.02,2.37c2.32-2,4.5-4.17,6.35-6.63c0.21-0.26,0.42-0.52,0.65-0.77c0.64,0.17,1.3,0.24,1.96,0.24
		c-0.13,0.34-0.25,0.68-0.38,1.02c-0.84,2.1-2.53,3.69-4.05,5.31c-1.63,1.6-3.29,3.2-5.11,4.59c-1.13,0.88-2.21,1.85-3.06,3.01
		c0.13-0.01,0.38-0.02,0.51-0.03c1.27-0.92,2.73-1.59,3.68-2.88c2.59-2.17,4.99-4.56,7.33-7c0.8-0.88,1.4-1.92,2.03-2.92
		c5.6,2.8,9.35,8.34,11.2,14.19c0.94,2.5,0.68,5.22,0.71,7.84C-90.81,243.7-90.68,241.12-90.97,238.57z"/>
	<path style="fill:#FFF5B0;" d="M-134.2,240.24c2.83-2.42,6.7-3.24,10.35-3.17c3.08-0.04,5.93,1.44,8.37,3.2
		c3.43,2.49,6.27,5.74,8.45,9.35c-2.6-3.2-5.15-6.53-8.59-8.89c-1.27-1.09-2.94-1.42-4.39-2.17c-2.29-1.38-5.1-0.93-7.59-0.5
		c-2.73,0.77-5.69,1.78-7.38,4.2C-135.1,241.47-134.84,240.71-134.2,240.24z"/>
	<path style="fill:#FFCD01;" d="M-120.71,222.85c3.99-1.82,8.6-1.84,12.77-0.67c0.01,0.61,0.12,1.29-0.25,1.83
		c-0.84,1.36-1.84,2.62-2.8,3.89c-0.62,0.83-1.64,1.37-2.02,2.37l-0.04,0.09c-1.91,1.7-3.9,3.32-5.94,4.87
		c-0.58,0.57-1.37,0.09-2.04-0.01c-3.93-0.99-8.18-0.46-11.8,1.32c-0.6,0.33-1.11,0.79-1.65,1.2c0.12-0.64,0.25-1.26,0.4-1.89
		c0.08,0.13,0.23,0.4,0.3,0.53c0.48-1.1,1.18-2.08,1.68-3.17C-129.86,228.41-125.43,225-120.71,222.85z"/>
	<path style="fill:#FFCD01;" d="M-105.14,227.12c0.8-0.88,1.4-1.92,2.03-2.92c5.6,2.8,9.35,8.34,11.2,14.19
		c0.94,2.5,0.68,5.22,0.71,7.84c-0.78,4.4-2.94,8.55-5.92,11.86c-1.09,1.06-2.19,2.18-3.56,2.86c-0.38-4.25-1.94-8.3-4.03-11.98
		c-1.56-2.9-3.67-5.48-5.98-7.8c-1.64-1.6-3.42-3.09-5.45-4.17c1.27-0.92,2.73-1.59,3.68-2.88
		C-109.88,231.95-107.48,229.56-105.14,227.12z"/>
	<path style="fill:#FFCD01;" d="M-127.6,238.04c2.49-0.42,5.3-0.88,7.59,0.5c1.45,0.76,3.12,1.08,4.39,2.17
		c3.44,2.36,5.99,5.69,8.59,8.89c0.53,0.6,0.84,1.36,1.21,2.07c0.83,1.69,1.72,3.36,2.2,5.19c0.48,1.7,0.78,3.44,1.09,5.18
		c-4.02,2.38-8.9,3.08-13.5,2.5c-5.24-0.8-10.33-3.61-13.31-8.02c-0.54-5.44,2.35-10.48,5.92-14.34c0.82-1.06,1.96-1.85,2.64-3.02
		c-0.96-0.71-2.23-0.39-3.02,0.41c-3.26,3-6.03,6.73-7.11,11.09c-0.31,1.08-0.23,2.24-0.64,3.29c-2.29-3.45-3.47-7.58-3.43-11.72
		C-133.29,239.82-130.33,238.81-127.6,238.04z"/>
</g>
<g>
	<path style="fill:#FFF5B0;" d="M-183.29,247.75c-0.04-1.7,0.96-3.37,2.51-3.89c2-0.87,4.31-0.07,6.2,0.99
		c4.18,2.37,8.09,5.43,12.68,6.86c-4.01-0.96-7.77-2.96-11.43-4.96c-1.8-0.92-3.7-1.99-5.73-1.82c-2.03,0.14-3.51,1.96-3.91,3.93
		c0.26,1.32,1,2.54,1.79,3.62C-182.32,251.18-183.3,249.53-183.29,247.75z"/>
	<path style="fill:#FFCD01;" d="M-182.96,248.86c0.4-1.97,1.88-3.79,3.91-3.93c2.02-0.17,3.92,0.9,5.73,1.82
		c3.67,2,7.42,4,11.43,4.96c1.14,0.31,2.31,0.59,3.36,1.2c-3.59,1.97-7.76,2.61-11.85,2.81c-3.71,0-7.72-0.69-10.79-3.24
		C-181.96,251.41-182.7,250.19-182.96,248.86z"/>
</g>
<g>
	<path style="fill:#C8FF88;" d="M-116.31,284.8c-2.16-2.64-4.94-4.73-8.07-6.09c-6.55-3.07-14.01-3.54-20.4-6.99
		c-3.77-2.05-7.35-4.87-9.22-8.83c-0.15,0.02-0.45,0.05-0.6,0.06c0.92,1.27,1.02,2.98,2.09,4.18c4.4,5.29,11.02,8.03,17.49,9.82
		c6,1.67,12.3,3.59,16.8,8.13c1.36,1.58,2.47,3.37,3.17,5.34l0.11,0.28C-114.08,288.71-115.18,286.45-116.31,284.8z"/>
	<path style="fill:#69CC00;" d="M-135.01,276.95c6,1.67,12.3,3.59,16.8,8.13c1.36,1.58,2.47,3.37,3.17,5.34l-0.26,0.43
		c-2.15-1.17-4.27-2.44-6.57-3.33c-5.36-2.11-11.15-2.67-16.7-4.12c-5.71-1.78-11.64-4.66-14.69-10.07
		c-1.6-3.17-2.95-7.05-1.42-10.5l0.08,0.12c0.92,1.27,1.02,2.98,2.09,4.18C-148.1,272.42-141.48,275.15-135.01,276.95z"/>
</g>
<circle style="fill:#FE366E;" cx="-145.54" cy="249.8" r="4.06"/>
<circle style="fill:#01CEF4;" cx="-67.53" cy="244.92" r="4.07"/>
<circle style="fill:#FE366E;" cx="-113.89" cy="202.42" r="4.06"/>
</svg>
