<?xml version="1.0" encoding="iso-8859-1"?>
<!-- Generator: Adobe Illustrator 27.9.0, SVG Export Plug-In . SVG Version: 6.00 Build 0)  -->
<svg version="1.1" id="Layer_1" xmlns="http://www.w3.org/2000/svg" xmlns:xlink="http://www.w3.org/1999/xlink" x="0px" y="0px"
	 viewBox="0 0 100 100" style="enable-background:new 0 0 100 100;" xml:space="preserve">
<style type="text/css">
	.st0{fill:#FFF4B0;}
	.st1{fill:#FFCC02;}
	.st2{fill:#8DD1E6;}
	.st3{fill:none;}
	.st4{fill:#F29EBC;}
	.st5{fill:#E73D70;}
	.st6{fill:#2EACC9;}
	.st7{fill:#C7D97F;}
	.st8{fill:#72B52B;}
	.st9{fill:#F1F1F0;}
	.st10{fill:#FFFFFF;}
</style>
<path class="st0" d="M35.4,10c0.1,0,0.2-0.1,0.3-0.1C35.6,10,35.5,10,35.4,10z"/>
<path class="st0" d="M30.3,12.3c0.1,0,0.2-0.1,0.2-0.1C30.5,12.2,30.4,12.2,30.3,12.3z"/>
<path class="st0" d="M35,10.2c0.1,0,0.2-0.1,0.3-0.1C35.2,10.1,35.1,10.2,35,10.2z"/>
<path class="st0" d="M31.7,11.6c0.1,0,0.2-0.1,0.2-0.1C31.8,11.6,31.7,11.6,31.7,11.6z"/>
<path class="st0" d="M31.2,11.8c0.1,0,0.2-0.1,0.2-0.1C31.4,11.8,31.3,11.8,31.2,11.8z"/>
<path class="st0" d="M29.8,12.6c0.1-0.1,0.2-0.1,0.4-0.2C30,12.5,29.9,12.5,29.8,12.6z"/>
<path class="st0" d="M30.8,12.1c0.1,0,0.2-0.1,0.2-0.1C30.9,12,30.9,12,30.8,12.1z"/>
<path class="st0" d="M34.1,10.6c0.1,0,0.2-0.1,0.3-0.1C34.2,10.5,34.1,10.5,34.1,10.6z"/>
<path class="st0" d="M33.6,10.8c0.1,0,0.2-0.1,0.3-0.1C33.8,10.7,33.7,10.7,33.6,10.8z"/>
<path class="st0" d="M32.1,11.4c0.1,0,0.2-0.1,0.3-0.1C32.3,11.3,32.2,11.4,32.1,11.4z"/>
<path class="st0" d="M34.5,10.4c0.1,0,0.2-0.1,0.3-0.1C34.7,10.3,34.6,10.4,34.5,10.4z"/>
<path class="st0" d="M33.1,11c0.1,0,0.2-0.1,0.3-0.1C33.3,10.9,33.2,10.9,33.1,11z"/>
<path class="st0" d="M32.5,11.2c0.1-0.1,0.2-0.1,0.4-0.2C32.8,11.1,32.7,11.2,32.5,11.2z"/>
<path class="st0" d="M29.3,12.8c0.1,0,0.2-0.1,0.2-0.1C29.5,12.7,29.4,12.8,29.3,12.8z"/>
<path class="st0" d="M18.3,21.7c0,0,0.1-0.1,0.1-0.1C18.3,21.6,18.3,21.7,18.3,21.7z"/>
<path class="st0" d="M18.6,21.3c0,0,0.1-0.1,0.1-0.1C18.7,21.3,18.6,21.3,18.6,21.3z"/>
<path class="st0" d="M18,22c0,0,0.1-0.1,0.1-0.1C18,22,18,22,18,22z"/>
<path class="st0" d="M17.7,22.4c0,0,0.1-0.1,0.1-0.1C17.7,22.3,17.7,22.4,17.7,22.4z"/>
<path class="st0" d="M20.4,19.5c0,0,0.1-0.1,0.1-0.1C20.5,19.4,20.4,19.4,20.4,19.5z"/>
<path class="st0" d="M19.5,20.4C19.5,20.4,19.5,20.4,19.5,20.4C19.5,20.4,19.5,20.4,19.5,20.4z"/>
<path class="st0" d="M20.1,19.8c0,0,0.1-0.1,0.1-0.1C20.2,19.7,20.1,19.8,20.1,19.8z"/>
<path class="st0" d="M17.4,22.7C17.4,22.7,17.4,22.7,17.4,22.7C17.4,22.7,17.4,22.7,17.4,22.7z"/>
<path class="st0" d="M19.7,20.1c0,0,0.1-0.1,0.1-0.1C19.8,20,19.8,20.1,19.7,20.1z"/>
<path class="st0" d="M20.7,19.1c0,0,0.1-0.1,0.1-0.1C20.8,19.1,20.8,19.1,20.7,19.1z"/>
<path class="st0" d="M16.6,23.7C16.6,23.7,16.6,23.7,16.6,23.7C16.6,23.7,16.6,23.7,16.6,23.7z"/>
<path class="st0" d="M25.9,15c0.1,0,0.1-0.1,0.2-0.1C26,14.9,26,14.9,25.9,15z"/>
<path class="st0" d="M25.5,15.2c0.1,0,0.1-0.1,0.2-0.1C25.6,15.2,25.6,15.2,25.5,15.2z"/>
<path class="st0" d="M25.1,15.5c0.1,0,0.1-0.1,0.2-0.1C25.2,15.4,25.2,15.5,25.1,15.5z"/>
<path class="st0" d="M26.7,14.4c0.1-0.1,0.2-0.1,0.3-0.2C26.9,14.3,26.8,14.4,26.7,14.4z"/>
<path class="st0" d="M26.3,14.7c0.1,0,0.1-0.1,0.2-0.1C26.4,14.6,26.4,14.7,26.3,14.7z"/>
<path class="st0" d="M28.5,13.3c0.1,0,0.1-0.1,0.2-0.1C28.6,13.2,28.6,13.3,28.5,13.3z"/>
<path class="st0" d="M28.1,13.6c0.1,0,0.1-0.1,0.2-0.1C28.2,13.5,28.2,13.5,28.1,13.6z"/>
<path class="st0" d="M27.3,14.1c0.1,0,0.1-0.1,0.2-0.1C27.4,14,27.3,14,27.3,14.1z"/>
<path class="st0" d="M21.1,18.8c0,0,0.1-0.1,0.1-0.1C21.2,18.8,21.1,18.8,21.1,18.8z"/>
<path class="st0" d="M27.7,13.8c0.1,0,0.1-0.1,0.2-0.1C27.8,13.7,27.7,13.8,27.7,13.8z"/>
<path class="st0" d="M22.7,17.4c0.1,0,0.1-0.1,0.2-0.1C22.8,17.3,22.7,17.4,22.7,17.4z"/>
<path class="st0" d="M22.3,17.7c0,0,0.1-0.1,0.1-0.1C22.4,17.6,22.4,17.7,22.3,17.7z"/>
<path class="st0" d="M24.7,15.8c0.1,0,0.1-0.1,0.2-0.1C24.8,15.7,24.8,15.8,24.7,15.8z"/>
<path class="st0" d="M23.1,17.1c0.1,0,0.1-0.1,0.2-0.1C23.2,17,23.1,17.1,23.1,17.1z"/>
<path class="st0" d="M22,18c0,0,0.1-0.1,0.1-0.1C22.1,17.9,22,18,22,18z"/>
<path class="st0" d="M23.8,16.5c0,0,0.1-0.1,0.1-0.1C23.9,16.4,23.8,16.5,23.8,16.5z"/>
<path class="st0" d="M24.4,16.1c0,0,0.1-0.1,0.1-0.1C24.5,16,24.4,16,24.4,16.1z"/>
<path class="st0" d="M28.9,13.1c0.1,0,0.1-0.1,0.2-0.1C29.1,13,29,13,28.9,13.1z"/>
<path class="st0" d="M23.4,16.8c0.1,0,0.1-0.1,0.2-0.1C23.5,16.7,23.5,16.8,23.4,16.8z"/>
<path class="st0" d="M82.9,23C82.9,23.1,82.9,23.1,82.9,23C82.9,23.1,82.9,23.1,82.9,23z"/>
<path class="st0" d="M79.9,19.8C79.9,19.8,79.9,19.8,79.9,19.8C79.9,19.8,79.9,19.8,79.9,19.8z"/>
<path class="st0" d="M81.9,21.9C81.9,21.9,82,21.9,81.9,21.9C82,21.9,81.9,21.9,81.9,21.9z"/>
<path class="st0" d="M80.9,20.8C81,20.9,81,20.9,80.9,20.8C81,20.9,81,20.9,80.9,20.8z"/>
<path class="st0" d="M78.3,18.3C78.4,18.3,78.4,18.3,78.3,18.3C78.4,18.3,78.4,18.3,78.3,18.3z"/>
<path class="st0" d="M77.2,17.4C77.2,17.4,77.3,17.4,77.2,17.4C77.3,17.4,77.2,17.4,77.2,17.4z"/>
<path class="st1" d="M18.7,78.8C18.7,78.8,18.7,78.8,18.7,78.8C18.7,78.8,18.7,78.8,18.7,78.8z"/>
<polygon class="st1" points="17.6,77.5 17.6,77.5 17.6,77.5 "/>
<path class="st1" d="M18,78C18,78,18,78,18,78C18,78,18,78,18,78z"/>
<path class="st1" d="M18.4,78.4C18.3,78.4,18.3,78.4,18.4,78.4C18.3,78.4,18.3,78.4,18.4,78.4z"/>
<path class="st1" d="M81.3,78.7C81.3,78.8,81.3,78.8,81.3,78.7C81.3,78.8,81.3,78.8,81.3,78.7z"/>
<path class="st1" d="M82,78.1C81.9,78.1,81.9,78.1,82,78.1C81.9,78.1,81.9,78.1,82,78.1z"/>
<path class="st1" d="M81.6,78.4C81.6,78.4,81.6,78.4,81.6,78.4C81.6,78.4,81.6,78.4,81.6,78.4z"/>
<path class="st0" d="M18,77.9c-0.1-0.1-0.2-0.3-0.4-0.4C17.7,77.7,17.8,77.8,18,77.9z"/>
<path class="st0" d="M18.3,78.4c-0.1-0.1-0.2-0.3-0.3-0.4C18.1,78.1,18.2,78.2,18.3,78.4z"/>
<path class="st0" d="M19.1,79.2c-0.1-0.1-0.2-0.2-0.3-0.4C18.9,78.9,19,79.1,19.1,79.2z"/>
<path class="st0" d="M18.7,78.8c-0.1-0.1-0.2-0.2-0.3-0.4C18.5,78.5,18.6,78.7,18.7,78.8z"/>
<path class="st0" d="M26.9,14.3c0.1-0.1,0.2-0.1,0.3-0.2C27.2,14.1,27,14.2,26.9,14.3z"/>
<path class="st0" d="M77.3,17.4c0.4,0.3,0.7,0.6,1.1,0.9C78,18,77.6,17.7,77.3,17.4z"/>
<path class="st0" d="M79.9,19.8c0.3,0.3,0.7,0.7,1,1C80.6,20.5,80.3,20.2,79.9,19.8z"/>
<path class="st0" d="M78.4,18.3c0.5,0.5,1.1,1,1.6,1.5C79.4,19.3,78.9,18.8,78.4,18.3z"/>
<path class="st0" d="M82,22c0.3,0.4,0.6,0.7,0.9,1.1C82.6,22.7,82.3,22.3,82,22z"/>
<path class="st0" d="M82.9,23.1c0.1,0.2,0.3,0.4,0.4,0.5C83.2,23.4,83,23.2,82.9,23.1z"/>
<path class="st0" d="M81,20.9c0.3,0.3,0.6,0.7,1,1.1C81.6,21.6,81.3,21.2,81,20.9z"/>
<path class="st0" d="M84.3,75.2c-0.7,1-1.5,2-2.3,2.9C82.8,77.1,83.5,76.2,84.3,75.2z"/>
<path class="st0" d="M81.6,78.4c-0.1,0.1-0.2,0.2-0.3,0.3C81.4,78.6,81.5,78.5,81.6,78.4z"/>
<path class="st0" d="M81.3,78.8c-0.1,0.1-0.2,0.2-0.3,0.3C81.1,79,81.2,78.9,81.3,78.8z"/>
<path class="st0" d="M81.9,78.1c-0.1,0.1-0.2,0.2-0.3,0.3C81.7,78.3,81.8,78.2,81.9,78.1z"/>
<path class="st0" d="M23.6,16.7c0.1-0.1,0.1-0.1,0.2-0.2C23.7,16.6,23.6,16.6,23.6,16.7z"/>
<path class="st0" d="M25.7,15.1c0.1,0,0.1-0.1,0.2-0.1C25.8,15,25.8,15.1,25.7,15.1z"/>
<path class="st0" d="M26.1,14.8c0.1,0,0.1-0.1,0.2-0.1C26.2,14.7,26.1,14.8,26.1,14.8z"/>
<path class="st0" d="M27.5,13.9c0.1,0,0.1-0.1,0.2-0.1C27.6,13.9,27.5,13.9,27.5,13.9z"/>
<path class="st0" d="M25.3,15.4c0.1,0,0.1-0.1,0.2-0.1C25.4,15.3,25.4,15.3,25.3,15.4z"/>
<path class="st0" d="M32.9,11.1C33,11,33,11,33.1,11C33,11,33,11,32.9,11.1z"/>
<path class="st0" d="M24.5,16c0.1-0.1,0.1-0.1,0.2-0.2C24.7,15.9,24.6,15.9,24.5,16z"/>
<path class="st0" d="M22.8,17.3c0.1-0.1,0.1-0.1,0.2-0.2C23,17.2,22.9,17.2,22.8,17.3z"/>
<path class="st0" d="M23.2,17c0.1-0.1,0.1-0.1,0.2-0.2C23.3,16.9,23.3,16.9,23.2,17z"/>
<path class="st0" d="M27.9,13.7c0.1,0,0.1-0.1,0.2-0.1C28,13.6,27.9,13.6,27.9,13.7z"/>
<path class="st0" d="M23.9,16.4c0.1-0.1,0.3-0.2,0.4-0.3C24.2,16.2,24.1,16.3,23.9,16.4z"/>
<path class="st0" d="M24.9,15.7c0.1-0.1,0.1-0.1,0.2-0.2C25,15.6,25,15.6,24.9,15.7z"/>
<path class="st0" d="M30.6,12.2c0.1,0,0.1-0.1,0.2-0.1C30.7,12.1,30.7,12.1,30.6,12.2z"/>
<path class="st0" d="M31,11.9c0.1,0,0.1-0.1,0.2-0.1C31.2,11.9,31.1,11.9,31,11.9z"/>
<path class="st0" d="M31.5,11.7c0.1,0,0.1-0.1,0.2-0.1C31.6,11.7,31.5,11.7,31.5,11.7z"/>
<path class="st0" d="M32.4,11.3c0.1,0,0.1-0.1,0.2-0.1C32.5,11.2,32.4,11.3,32.4,11.3z"/>
<path class="st0" d="M28.3,13.4c0.1,0,0.1-0.1,0.2-0.1C28.4,13.4,28.4,13.4,28.3,13.4z"/>
<path class="st0" d="M31.9,11.5c0.1,0,0.1-0.1,0.2-0.1C32,11.5,32,11.5,31.9,11.5z"/>
<path class="st0" d="M28.7,13.2c0.1,0,0.1-0.1,0.2-0.1C28.8,13.1,28.8,13.1,28.7,13.2z"/>
<path class="st0" d="M29.1,12.9c0.1,0,0.1-0.1,0.2-0.1C29.3,12.9,29.2,12.9,29.1,12.9z"/>
<path class="st0" d="M30.2,12.4c0.1,0,0.1-0.1,0.2-0.1C30.3,12.3,30.2,12.4,30.2,12.4z"/>
<path class="st0" d="M29.6,12.7c0.1,0,0.1-0.1,0.2-0.1C29.7,12.6,29.6,12.7,29.6,12.7z"/>
<path class="st0" d="M26.5,14.6c0.1,0,0.1-0.1,0.2-0.1C26.6,14.5,26.5,14.5,26.5,14.6z"/>
<path class="st0" d="M16.4,24c0.1-0.1,0.1-0.2,0.2-0.3C16.5,23.8,16.5,23.9,16.4,24z"/>
<path class="st0" d="M17.8,22.3c0.1-0.1,0.1-0.2,0.2-0.2C17.9,22.1,17.8,22.2,17.8,22.3z"/>
<path class="st0" d="M17.5,22.6c0.1-0.1,0.1-0.2,0.2-0.2C17.6,22.5,17.5,22.6,17.5,22.6z"/>
<path class="st0" d="M16.6,23.7c0.3-0.3,0.5-0.6,0.8-0.9C17.1,23,16.9,23.4,16.6,23.7z"/>
<path class="st0" d="M18.4,21.6c0.1-0.1,0.1-0.2,0.2-0.2C18.5,21.4,18.4,21.5,18.4,21.6z"/>
<path class="st0" d="M20.9,19c0.1-0.1,0.1-0.1,0.2-0.2C21,18.9,20.9,19,20.9,19z"/>
<path class="st0" d="M18.1,21.9c0.1-0.1,0.1-0.2,0.2-0.2C18.2,21.8,18.1,21.8,18.1,21.9z"/>
<path class="st0" d="M20.2,19.7c0.1-0.1,0.1-0.1,0.2-0.2C20.3,19.5,20.3,19.6,20.2,19.7z"/>
<path class="st0" d="M22.1,17.9c0.1-0.1,0.1-0.1,0.2-0.2C22.3,17.8,22.2,17.8,22.1,17.9z"/>
<path class="st0" d="M21.2,18.7c0.3-0.2,0.5-0.5,0.8-0.7C21.7,18.2,21.5,18.5,21.2,18.7z"/>
<path class="st0" d="M20.5,19.3c0.1-0.1,0.1-0.1,0.2-0.2C20.7,19.2,20.6,19.3,20.5,19.3z"/>
<path class="st0" d="M19.9,20c0.1-0.1,0.1-0.1,0.2-0.2C20,19.9,19.9,19.9,19.9,20z"/>
<path class="st0" d="M22.5,17.6c0.1-0.1,0.1-0.1,0.2-0.2C22.6,17.5,22.5,17.5,22.5,17.6z"/>
<path class="st0" d="M18.7,21.2c0.3-0.3,0.5-0.6,0.8-0.8C19.2,20.7,18.9,21,18.7,21.2z"/>
<path class="st0" d="M19.5,20.3c0.1-0.1,0.1-0.1,0.2-0.2C19.7,20.2,19.6,20.3,19.5,20.3z"/>
<path class="st0" d="M33.4,10.8c0.1,0,0.1-0.1,0.2-0.1C33.5,10.8,33.5,10.8,33.4,10.8z"/>
<path class="st0" d="M33.9,10.7c0.1,0,0.1-0.1,0.2-0.1C34,10.6,33.9,10.6,33.9,10.7z"/>
<path class="st0" d="M34.3,10.5c0.1,0,0.1-0.1,0.2-0.1C34.4,10.4,34.4,10.4,34.3,10.5z"/>
<path class="st0" d="M35.2,10.1c0.1,0,0.1,0,0.2-0.1C35.4,10.1,35.3,10.1,35.2,10.1z"/>
<path class="st0" d="M34.8,10.3c0.1,0,0.1-0.1,0.2-0.1C34.9,10.2,34.8,10.3,34.8,10.3z"/>
<path class="st1" d="M50,11c-0.2,0-0.4,0-0.5,0c-0.1,0-0.2,0-0.4,0C30,11,13.8,23.6,8.5,41c0.4-0.2,0.9-0.5,1.3-0.7
	c0.9-0.5,1.8-0.9,2.8-1.2c4.8-1.9,10.2-2.9,16-2.9c3,0,5.9,0.4,8.7,1.2c1.1-0.9,2.2-1.7,3.3-2.5c4.1-3.1,8.4-6.3,12.3-10
	c3.8-3.6,6.9-7.9,9.3-11.7c0,0,0-0.1,0.1-0.1C58.4,11.7,54.2,11,50,11z"/>
<g>
	<path class="st1" d="M28.7,44.5c1.2-1.1,2.5-2.2,3.7-3.3c-1.2-0.2-2.5-0.2-3.8-0.2c-6.5,0-12.3,1.3-17.3,4
		c-1.3,0.7-2.6,1.5-3.8,2.4c0,0,0,0,0,0c0,0.2,0,0.4,0,0.6c0,0,0,0.1,0,0.1c0,0.2,0,0.3,0,0.5c0,0.1,0,0.1,0,0.2c0,0.2,0,0.3,0,0.5
		c0,0.1,0,0.1,0,0.2c0,0.2,0,0.4,0,0.6c0,0.1,0,0.2,0,0.3c0.1,7.9,2.3,15.3,6.1,21.6c0.1-0.5,0.3-1,0.4-1.5c0.3-1.2,0.6-2.4,0.9-3.5
		c1-3.7,2.3-7,3.9-9.8C21.4,52.1,24.9,48.1,28.7,44.5z"/>
	<path class="st1" d="M67.8,84.7c-1.4-4.8-3.3-10.5-5.9-16.1c-6.3-13.8-14.3-22.5-23.6-25.9c-6,4.7-11.5,9.8-15.3,16.7
		c-2,3.6-3.3,7.8-4.3,12.1c-0.1,0.4-0.2,0.9-0.3,1.3c-0.3,1.6-0.6,3.2-0.8,4.7c0,0,0,0,0,0c0.1,0.1,0.2,0.3,0.4,0.4c0,0,0,0,0,0
		c0.1,0.1,0.2,0.3,0.3,0.4c0,0,0,0,0,0c0.1,0.1,0.2,0.2,0.3,0.4c0,0,0,0,0,0c0.1,0.1,0.2,0.2,0.3,0.4c0,0,0,0,0,0
		c0.8,0.8,1.6,1.6,2.4,2.3c0,0,0,0,0,0c0.1,0.1,0.3,0.2,0.4,0.3c0,0,0,0,0.1,0c0.1,0.1,0.2,0.2,0.4,0.3c0,0,0,0,0.1,0.1
		c0.1,0.1,0.2,0.2,0.4,0.3c0,0,0,0,0.1,0c0.1,0.1,0.3,0.2,0.4,0.3c0,0,0,0,0,0c0.7,0.6,1.5,1.1,2.2,1.7c0,0,0,0,0,0
		c0.1,0.1,0.3,0.2,0.4,0.3c0,0,0.1,0,0.1,0.1c0.1,0.1,0.3,0.2,0.4,0.3c0,0,0.1,0,0.1,0.1c0.1,0.1,0.2,0.2,0.4,0.2c0,0,0.1,0,0.1,0.1
		c0.1,0.1,0.3,0.2,0.4,0.2c0,0,0.1,0,0.1,0.1c0.1,0.1,0.3,0.2,0.4,0.3c0,0,0,0,0.1,0c0.6,0.4,1.3,0.8,1.9,1.1c0,0,0,0,0.1,0
		c0.1,0.1,0.3,0.1,0.4,0.2c0,0,0.1,0,0.1,0.1c0.1,0.1,0.3,0.1,0.4,0.2c0,0,0.1,0,0.1,0.1c0.1,0.1,0.2,0.1,0.4,0.2c0,0,0.1,0,0.1,0.1
		c0.1,0.1,0.2,0.1,0.4,0.2c0,0,0.1,0,0.1,0.1c0.1,0.1,0.3,0.1,0.4,0.2c0,0,0.1,0,0.1,0.1c0.1,0.1,0.3,0.1,0.4,0.2c0,0,0.1,0,0.1,0
		c0.5,0.2,1,0.4,1.5,0.6c0,0,0.1,0,0.1,0c0.1,0.1,0.3,0.1,0.4,0.2c0,0,0.1,0,0.1,0.1c0.1,0,0.2,0.1,0.4,0.1c0.1,0,0.1,0,0.2,0.1
		c0.1,0,0.2,0.1,0.4,0.1c0.1,0,0.1,0,0.2,0.1c0.1,0,0.2,0.1,0.3,0.1c0.1,0,0.1,0,0.2,0.1c0.1,0,0.2,0.1,0.3,0.1c0.1,0,0.1,0,0.2,0.1
		c0.1,0,0.2,0.1,0.4,0.1c0.1,0,0.1,0,0.2,0c0.1,0,0.3,0.1,0.4,0.1c0,0,0.1,0,0.1,0c0.4,0.1,0.7,0.2,1.1,0.3c0,0,0.1,0,0.1,0
		c0.1,0,0.3,0.1,0.4,0.1c0.1,0,0.1,0,0.2,0c0.1,0,0.2,0.1,0.4,0.1c0.1,0,0.1,0,0.2,0c0.1,0,0.2,0.1,0.3,0.1c0.1,0,0.1,0,0.2,0
		c0.1,0,0.2,0,0.3,0.1c0.1,0,0.1,0,0.2,0c0.1,0,0.2,0,0.3,0.1c0.1,0,0.1,0,0.2,0c0.1,0,0.2,0,0.3,0.1c0.1,0,0.1,0,0.2,0
		c0.1,0,0.2,0,0.4,0.1c0.1,0,0.1,0,0.2,0c0.1,0,0.3,0,0.4,0.1c0,0,0.1,0,0.1,0c0.2,0,0.4,0.1,0.6,0.1c0,0,0.1,0,0.1,0
		c0.1,0,0.3,0,0.4,0.1c0.1,0,0.1,0,0.2,0c0.1,0,0.2,0,0.4,0c0.1,0,0.2,0,0.2,0c0.1,0,0.2,0,0.3,0c0.1,0,0.2,0,0.2,0
		c0.1,0,0.2,0,0.3,0c0.1,0,0.2,0,0.2,0c0.1,0,0.2,0,0.3,0c0.1,0,0.2,0,0.2,0c0.1,0,0.2,0,0.3,0c0.1,0,0.2,0,0.2,0c0.1,0,0.2,0,0.3,0
		c0.1,0,0.2,0,0.2,0c0.1,0,0.3,0,0.4,0c0.1,0,0.1,0,0.2,0c0.2,0,0.4,0,0.6,0c0,0,0,0,0,0c0,0,0,0,0,0c0.2,0,0.4,0,0.5,0
		c0.1,0,0.1,0,0.2,0c0.1,0,0.2,0,0.4,0c0.1,0,0.1,0,0.2,0c0.1,0,0.2,0,0.3,0c0.1,0,0.2,0,0.2,0c0.1,0,0.2,0,0.3,0c0.1,0,0.2,0,0.2,0
		c0.1,0,0.2,0,0.3,0c0.1,0,0.2,0,0.2,0c0.1,0,0.2,0,0.3,0c0.1,0,0.2,0,0.2,0c0.1,0,0.2,0,0.3,0c0.1,0,0.1,0,0.2,0c0.1,0,0.2,0,0.3,0
		c0.1,0,0.1,0,0.2,0c0.1,0,0.2,0,0.3,0c0.1,0,0.1,0,0.2,0c0.1,0,0.2,0,0.3,0c0.1,0,0.1,0,0.2,0c0.1,0,0.2,0,0.3,0c0.1,0,0.1,0,0.2,0
		c0.1,0,0.2,0,0.3-0.1c0.1,0,0.1,0,0.2,0c0.1,0,0.2,0,0.4-0.1c0.1,0,0.1,0,0.2,0c0.1,0,0.2,0,0.4-0.1c0.1,0,0.1,0,0.2,0
		c0.1,0,0.2,0,0.4-0.1c0.1,0,0.1,0,0.2,0c0.1,0,0.3-0.1,0.4-0.1c0,0,0.1,0,0.1,0c0.1,0,0.3-0.1,0.4-0.1c0,0,0.1,0,0.1,0
		c0.1,0,0.3-0.1,0.4-0.1c0,0,0.1,0,0.1,0c0.1,0,0.3-0.1,0.4-0.1c0,0,0.1,0,0.1,0c0.2,0,0.3-0.1,0.5-0.1c0,0,0,0,0,0
		c0.2,0,0.3-0.1,0.5-0.1c0,0,0,0,0,0c1.9-0.5,3.8-1.2,5.6-2c0.5-0.2,1.1-0.5,1.6-0.8c0,0,0,0,0,0C68.5,87.1,68.2,85.9,67.8,84.7z"/>
</g>
<path class="st3" d="M68.1,15.5C68.1,15.5,68.1,15.5,68.1,15.5c0.2,0.1,0.4,0.2,0.7,0.3C68.5,15.7,68.5,15.7,68.1,15.5z"/>
<path class="st1" d="M68.8,15.8c-0.2-0.1-0.4-0.2-0.7-0.3c-2.7,4.9-7.2,11-12.8,16.3c-3.3,3.2-6.9,6-10.4,8.7
	c2.5,1.4,4.9,3.2,7.2,5.4c5.4,5,10.2,12,14.2,20.8c2.5,5.4,4.4,10.8,5.8,15.5c0.4,1.2,0.7,2.4,1,3.6c1.4-0.9,2.8-2,4.1-3.1
	c0,0,0,0,0,0c0.1-0.1,0.2-0.2,0.4-0.3c0,0,0,0,0,0c1.2-1,2.3-2.1,3.4-3.2c0,0,0,0,0,0c0.1-0.1,0.2-0.2,0.3-0.3c0,0,0,0,0,0
	c0.1-0.1,0.2-0.2,0.3-0.3c0,0,0,0,0,0c0.1-0.1,0.2-0.2,0.3-0.3c0,0,0,0,0,0c0.8-0.9,1.6-1.9,2.3-2.9c0,0,0,0,0,0
	c0.1-0.1,0.2-0.2,0.2-0.3c0,0,0,0,0-0.1c0.1-0.1,0.2-0.2,0.2-0.3c0,0,0,0,0-0.1c0.1-0.1,0.1-0.2,0.2-0.3c0,0,0,0,0-0.1
	c0.1-0.1,0.1-0.2,0.2-0.3c0,0,0,0,0-0.1c0.1-0.1,0.2-0.2,0.2-0.3c0,0,0,0,0,0c0.5-0.8,1-1.5,1.4-2.3c0,0,0,0,0-0.1
	c0.1-0.1,0.1-0.2,0.2-0.3c0,0,0-0.1,0.1-0.1c0.1-0.1,0.1-0.2,0.2-0.3c0,0,0-0.1,0.1-0.1c0.1-0.1,0.1-0.2,0.2-0.3c0,0,0-0.1,0.1-0.1
	c0.1-0.1,0.1-0.2,0.2-0.3c0,0,0-0.1,0.1-0.1c0.1-0.1,0.1-0.2,0.2-0.3c0,0,0-0.1,0.1-0.1c0.1-0.1,0.1-0.2,0.2-0.3c0,0,0-0.1,0-0.1
	c0.1-0.1,0.1-0.2,0.2-0.3c0,0,0,0,0-0.1c0.2-0.5,0.5-1.1,0.7-1.6c0,0,0-0.1,0-0.1c0-0.1,0.1-0.2,0.1-0.3c0,0,0-0.1,0.1-0.1
	c0-0.1,0.1-0.2,0.1-0.3c0-0.1,0-0.1,0.1-0.2c0-0.1,0.1-0.2,0.1-0.3c0-0.1,0-0.1,0.1-0.2c0-0.1,0.1-0.2,0.1-0.3c0-0.1,0-0.1,0.1-0.2
	c0-0.1,0.1-0.2,0.1-0.3c0-0.1,0-0.1,0.1-0.2c0-0.1,0.1-0.2,0.1-0.3c0-0.1,0-0.1,0.1-0.2c0-0.1,0.1-0.2,0.1-0.3c0-0.1,0-0.1,0.1-0.2
	c0-0.1,0.1-0.2,0.1-0.3c0-0.1,0-0.1,0-0.2c0-0.1,0.1-0.2,0.1-0.3c0.6-2.8,0.9-5.6,0.9-8.6C91.6,37.2,82.4,22.9,68.8,15.8z"/>
<path class="st0" d="M92.5,49.3c0-0.1,0-0.1,0-0.2c0-0.2,0-0.4,0-0.6c0,0,0-0.1,0-0.1c0-0.2,0-0.5,0-0.7c0-0.1,0-0.1,0-0.2
	c0-0.2,0-0.4,0-0.6c0-0.1,0-0.1,0-0.2c0-0.2,0-0.5-0.1-0.7c0,0,0-0.1,0-0.1c0-0.2,0-0.4-0.1-0.6c0-0.1,0-0.1,0-0.2
	c0-0.2-0.1-0.5-0.1-0.7c0,0,0,0,0,0c0-0.2-0.1-0.4-0.1-0.7c0-0.1,0-0.1,0-0.2c0-0.2-0.1-0.4-0.1-0.6c0,0,0-0.1,0-0.1
	c0-0.2-0.1-0.4-0.1-0.7c0-0.1,0-0.1,0-0.2c0-0.2-0.1-0.4-0.1-0.5c0,0,0-0.1,0-0.1c0-0.2-0.1-0.4-0.1-0.7c0,0,0-0.1,0-0.1
	c0-0.2-0.1-0.4-0.1-0.6c0-0.1,0-0.1,0-0.2c-0.1-0.4-0.2-0.9-0.3-1.3c0-0.1,0-0.1,0-0.2c-0.1-0.2-0.1-0.4-0.2-0.6c0,0,0-0.1,0-0.1
	c-0.1-0.2-0.1-0.4-0.2-0.6c0,0,0-0.1,0-0.1c-0.1-0.2-0.1-0.4-0.2-0.5c0,0,0-0.1,0-0.1c-0.1-0.2-0.1-0.4-0.2-0.6c0,0,0-0.1,0-0.1
	c-0.1-0.2-0.1-0.4-0.2-0.6c0,0,0-0.1-0.1-0.1c-0.2-0.4-0.3-0.8-0.5-1.3c0,0,0-0.1-0.1-0.1c-0.1-0.2-0.2-0.4-0.2-0.6c0,0,0,0,0,0
	c-0.1-0.2-0.2-0.4-0.3-0.6c0,0,0-0.1,0-0.1c-0.1-0.2-0.2-0.4-0.3-0.5c0,0,0-0.1,0-0.1c-0.1-0.2-0.2-0.4-0.3-0.6c0,0,0,0,0-0.1
	c-0.1-0.2-0.2-0.4-0.3-0.6c0,0,0-0.1-0.1-0.1c-0.2-0.4-0.4-0.8-0.7-1.2c0,0,0-0.1-0.1-0.1c-0.2-0.4-0.5-0.8-0.7-1.2c0,0,0,0,0-0.1
	c-0.1-0.2-0.2-0.4-0.3-0.5c0,0,0,0,0-0.1c-0.1-0.2-0.3-0.4-0.4-0.6c0,0,0,0,0,0c-0.1-0.2-0.2-0.4-0.4-0.6c0,0,0,0,0-0.1
	c-0.3-0.4-0.5-0.8-0.8-1.1c0,0,0,0,0-0.1c-0.3-0.4-0.6-0.7-0.9-1.1c0,0,0,0,0,0c-0.1-0.2-0.3-0.4-0.4-0.5c0,0,0,0,0,0
	c-0.3-0.4-0.6-0.7-0.9-1.1c0,0,0,0,0,0c-0.3-0.4-0.6-0.7-1-1.1c0,0,0,0,0,0c-0.3-0.3-0.7-0.7-1-1c0,0,0,0,0,0c-0.5-0.5-1-1-1.6-1.5
	c0,0,0,0,0,0c-0.4-0.3-0.7-0.6-1.1-0.9c0,0,0,0,0,0c-0.1-0.1-0.3-0.2-0.4-0.4c0,0-0.1-0.1-0.1-0.1c-0.1-0.1-0.2-0.2-0.3-0.3
	c0,0-0.1-0.1-0.1-0.1c-0.1-0.1-0.2-0.2-0.4-0.3c0,0-0.1,0-0.1-0.1c-0.2-0.1-0.3-0.2-0.5-0.4c0,0-0.1-0.1-0.1-0.1
	c-0.1-0.1-0.2-0.2-0.4-0.3c0,0-0.1-0.1-0.1-0.1c-0.1-0.1-0.2-0.2-0.4-0.3c0,0-0.1-0.1-0.1-0.1c-0.2-0.1-0.3-0.2-0.5-0.3c0,0,0,0,0,0
	c-0.2-0.1-0.3-0.2-0.5-0.3c0,0-0.1-0.1-0.1-0.1c-0.1-0.1-0.2-0.2-0.4-0.2c0,0-0.1-0.1-0.1-0.1c-0.1-0.1-0.3-0.2-0.4-0.3
	c0,0-0.1,0-0.1,0c-0.2-0.1-0.3-0.2-0.5-0.3c0,0-0.1,0-0.1-0.1c-0.1-0.1-0.3-0.2-0.4-0.2c-0.1,0-0.1-0.1-0.2-0.1
	c-0.1-0.1-0.3-0.1-0.4-0.2c0,0-0.1-0.1-0.1-0.1c-0.2-0.1-0.3-0.2-0.5-0.3c0,0,0,0-0.1,0c-0.2-0.1-0.3-0.2-0.5-0.2
	c-0.1,0-0.1-0.1-0.2-0.1c-0.1-0.1-0.3-0.1-0.4-0.2c0,0-0.1,0-0.1,0c0,0,0,0,0,0c-1.5-0.7-3-1.3-4.5-1.9c0,0,0,0,0,0c0,0-0.1,0-0.1,0
	c-0.2-0.1-0.4-0.1-0.6-0.2c0,0-0.1,0-0.1,0c-0.3-0.1-0.5-0.2-0.8-0.2c0,0-0.1,0-0.1,0c-0.5-0.2-1-0.3-1.6-0.4c0,0-0.1,0-0.1,0
	c-0.3-0.1-0.5-0.1-0.8-0.2c0,0-0.1,0-0.1,0c-0.3-0.1-0.5-0.1-0.8-0.2c0,0,0,0,0,0c-0.3-0.1-0.5-0.1-0.8-0.2c0,0-0.1,0-0.1,0
	c-0.3-0.1-0.5-0.1-0.8-0.1c0,0-0.1,0-0.1,0C56.9,8,56.7,8,56.4,8c0,0-0.1,0-0.1,0c-0.3,0-0.5-0.1-0.8-0.1c0,0-0.1,0-0.1,0
	c-0.3,0-0.5-0.1-0.8-0.1c0,0-0.1,0-0.1,0c-0.3,0-0.5-0.1-0.8-0.1c0,0-0.1,0-0.1,0c-0.3,0-0.5,0-0.8-0.1c0,0,0,0-0.1,0
	c-0.3,0-0.5,0-0.8,0c-0.1,0-0.1,0-0.2,0c-0.3,0-0.5,0-0.8,0c0,0-0.1,0-0.1,0c-0.3,0-0.6,0-0.8,0c0,0,0,0,0,0c-0.2,0-0.3,0-0.5,0
	c-0.1,0-0.1,0-0.2,0c-0.1,0-0.2,0-0.3,0c-0.1,0-0.1,0-0.2,0c-0.1,0-0.2,0-0.3,0c-0.1,0-0.1,0-0.2,0c-0.1,0-0.2,0-0.3,0
	c-0.1,0-0.1,0-0.2,0c-0.1,0-0.2,0-0.3,0c-0.1,0-0.1,0-0.2,0c-0.1,0-0.2,0-0.4,0c0,0-0.1,0-0.1,0c-0.2,0-0.3,0-0.5,0c0,0-0.1,0-0.1,0
	c-0.1,0-0.3,0-0.4,0c-0.1,0-0.1,0-0.2,0c-0.1,0-0.2,0-0.3,0c-0.1,0-0.1,0-0.2,0c-0.1,0-0.2,0-0.3,0c-0.1,0-0.1,0-0.2,0
	c-0.1,0-0.2,0-0.3,0c-0.1,0-0.1,0-0.2,0c-0.1,0-0.2,0-0.3,0c-0.1,0-0.1,0-0.2,0c-0.1,0-0.3,0-0.4,0.1c0,0-0.1,0-0.1,0
	c-0.2,0-0.3,0.1-0.5,0.1c-0.1,0-0.1,0-0.2,0c-0.1,0-0.2,0-0.3,0.1c-0.1,0-0.1,0-0.2,0c-0.1,0-0.2,0-0.3,0.1c-0.1,0-0.1,0-0.2,0
	c-0.1,0-0.2,0-0.3,0.1c-0.1,0-0.1,0-0.2,0c-0.1,0-0.2,0-0.3,0.1c-0.1,0-0.1,0-0.2,0c-0.1,0-0.2,0.1-0.3,0.1c-0.1,0-0.1,0-0.2,0
	c-0.2,0-0.3,0.1-0.5,0.1c0,0-0.1,0-0.1,0c-0.1,0-0.3,0.1-0.4,0.1c-0.1,0-0.1,0-0.2,0c-0.1,0-0.2,0.1-0.3,0.1c-0.1,0-0.1,0-0.2,0.1
	c-0.1,0-0.2,0.1-0.3,0.1c-0.1,0-0.1,0-0.2,0.1c-0.1,0-0.2,0.1-0.3,0.1c-0.1,0-0.1,0-0.2,0.1c-0.1,0-0.2,0.1-0.3,0.1
	c-0.1,0-0.1,0-0.2,0.1c-0.1,0-0.2,0.1-0.3,0.1c0,0-0.1,0-0.1,0c-0.2,0.1-0.3,0.1-0.5,0.2c-0.1,0-0.1,0-0.2,0.1
	c-0.1,0-0.2,0.1-0.3,0.1c-0.1,0-0.1,0-0.2,0.1c-0.1,0-0.2,0.1-0.3,0.1c-0.1,0-0.1,0.1-0.2,0.1c-0.1,0-0.2,0.1-0.3,0.1
	c-0.1,0-0.1,0.1-0.2,0.1c-0.1,0-0.2,0.1-0.3,0.1c-0.1,0-0.1,0.1-0.2,0.1c-0.1,0-0.2,0.1-0.3,0.1c-0.1,0-0.1,0.1-0.2,0.1
	c-0.1,0-0.2,0.1-0.3,0.1C33,11,33,11,32.9,11.1c-0.1,0.1-0.2,0.1-0.4,0.2c-0.1,0-0.1,0.1-0.2,0.1c-0.1,0-0.2,0.1-0.3,0.1
	c-0.1,0-0.1,0.1-0.2,0.1c-0.1,0-0.2,0.1-0.2,0.1c-0.1,0-0.1,0.1-0.2,0.1c-0.1,0-0.2,0.1-0.2,0.1c-0.1,0-0.1,0.1-0.2,0.1
	c-0.1,0-0.2,0.1-0.2,0.1c-0.1,0-0.1,0.1-0.2,0.1c-0.1,0-0.2,0.1-0.2,0.1c-0.1,0-0.1,0.1-0.2,0.1c-0.1,0.1-0.2,0.1-0.4,0.2
	c-0.1,0-0.1,0.1-0.2,0.1c-0.1,0-0.2,0.1-0.2,0.1c-0.1,0-0.1,0.1-0.2,0.1c-0.1,0-0.1,0.1-0.2,0.1c-0.1,0-0.1,0.1-0.2,0.1
	c-0.1,0-0.1,0.1-0.2,0.1c-0.1,0-0.1,0.1-0.2,0.1c-0.1,0-0.1,0.1-0.2,0.1c-0.1,0-0.1,0.1-0.2,0.1c-0.1,0-0.1,0.1-0.2,0.1
	c-0.1,0-0.1,0.1-0.2,0.1c-0.1,0-0.1,0.1-0.2,0.1c-0.1,0.1-0.2,0.1-0.3,0.2c-0.1,0.1-0.2,0.1-0.3,0.2c-0.1,0-0.1,0.1-0.2,0.1
	c-0.1,0-0.1,0.1-0.2,0.1c-0.1,0-0.1,0.1-0.2,0.1c-0.1,0-0.1,0.1-0.2,0.1c-0.1,0-0.1,0.1-0.2,0.1c-0.1,0-0.1,0.1-0.2,0.1
	c-0.1,0-0.1,0.1-0.2,0.1c-0.1,0-0.1,0.1-0.2,0.1c-0.1,0.1-0.1,0.1-0.2,0.2c-0.1,0-0.1,0.1-0.2,0.1c-0.1,0.1-0.1,0.1-0.2,0.2
	c0,0-0.1,0.1-0.1,0.1c-0.1,0.1-0.3,0.2-0.4,0.3c0,0-0.1,0.1-0.1,0.1c-0.1,0.1-0.1,0.1-0.2,0.2c-0.1,0-0.1,0.1-0.2,0.1
	c-0.1,0.1-0.1,0.1-0.2,0.2c-0.1,0-0.1,0.1-0.2,0.1c-0.1,0.1-0.1,0.1-0.2,0.2c-0.1,0-0.1,0.1-0.2,0.1c-0.1,0.1-0.1,0.1-0.2,0.2
	c0,0-0.1,0.1-0.1,0.1c-0.1,0.1-0.1,0.1-0.2,0.2c0,0-0.1,0.1-0.1,0.1c-0.3,0.2-0.5,0.5-0.8,0.7c0,0-0.1,0.1-0.1,0.1
	C21,18.9,20.9,19,20.9,19c0,0-0.1,0.1-0.1,0.1c-0.1,0.1-0.1,0.1-0.2,0.2c0,0-0.1,0.1-0.1,0.1c-0.1,0.1-0.1,0.1-0.2,0.2
	c0,0-0.1,0.1-0.1,0.1c-0.1,0.1-0.1,0.1-0.2,0.2c0,0-0.1,0.1-0.1,0.1c-0.1,0.1-0.1,0.1-0.2,0.2c0,0,0,0-0.1,0.1
	c-0.3,0.3-0.5,0.5-0.8,0.8c0,0-0.1,0.1-0.1,0.1c-0.1,0.1-0.1,0.2-0.2,0.2c0,0-0.1,0.1-0.1,0.1c-0.1,0.1-0.1,0.2-0.2,0.2
	C18,22,18,22,18,22c-0.1,0.1-0.1,0.2-0.2,0.2c0,0-0.1,0.1-0.1,0.1c-0.1,0.1-0.1,0.2-0.2,0.2c0,0-0.1,0.1-0.1,0.1
	c-0.3,0.3-0.5,0.6-0.8,0.9c0,0,0,0,0,0c-0.1,0.1-0.1,0.2-0.2,0.3c0,0-0.1,0.1-0.1,0.1c-0.1,0.1-0.1,0.2-0.2,0.3c0,0-0.1,0.1-0.1,0.1
	c-0.1,0.1-0.1,0.2-0.2,0.3c0,0-0.1,0.1-0.1,0.1c-0.1,0.1-0.1,0.2-0.2,0.3c0,0,0,0.1-0.1,0.1c-0.1,0.1-0.1,0.2-0.2,0.3c0,0,0,0,0,0
	c-0.2,0.3-0.5,0.7-0.7,1c0,0,0,0,0,0c-0.1,0.1-0.1,0.2-0.2,0.3c0,0,0,0.1-0.1,0.1c-0.1,0.1-0.1,0.2-0.2,0.3c0,0,0,0.1-0.1,0.1
	c-0.1,0.1-0.1,0.2-0.2,0.3c0,0,0,0.1-0.1,0.1c-0.1,0.1-0.1,0.2-0.2,0.3c0,0,0,0,0,0.1c-0.3,0.5-0.6,1-0.8,1.4c0,0,0,0,0,0.1
	c-0.1,0.1-0.1,0.2-0.2,0.3c0,0,0,0.1-0.1,0.1c-0.1,0.1-0.1,0.2-0.2,0.3c0,0,0,0.1-0.1,0.1c-0.1,0.1-0.1,0.2-0.2,0.3c0,0,0,0.1,0,0.1
	c-0.1,0.1-0.1,0.2-0.2,0.3c0,0,0,0,0,0c-0.3,0.5-0.5,1-0.7,1.5c0,0,0,0,0,0.1c0,0.1-0.1,0.2-0.1,0.3c0,0,0,0.1,0,0.1
	c0,0.1-0.1,0.2-0.1,0.3c0,0,0,0.1,0,0.1c0,0.1-0.1,0.2-0.1,0.3c0,0,0,0,0,0.1c-0.2,0.5-0.4,1.1-0.6,1.6c0,0,0,0,0,0
	c0,0.1-0.1,0.2-0.1,0.4c0,0,0,0.1,0,0.1c0,0.1-0.1,0.2-0.1,0.4c0,0,0,0.1,0,0.1c0,0.1-0.1,0.2-0.1,0.4c0,0,0,0.1,0,0.1
	c0,0.1-0.1,0.2-0.1,0.4c0,0,0,0,0,0c-0.2,0.6-0.3,1.1-0.5,1.7c0,0,0,0,0,0.1c0,0.1-0.1,0.2-0.1,0.4c0,0,0,0.1,0,0.1
	c0,0.1-0.1,0.2-0.1,0.4c0,0,0,0.1,0,0.1c0,0.1-0.1,0.2-0.1,0.4c0,0,0,0.1,0,0.1c0,0.1-0.1,0.3-0.1,0.4c0,0,0,0,0,0
	C13.8,23.6,30,11,49.1,11c0.1,0,0.2,0,0.4,0c0.2,0,0.4,0,0.5,0c4.2,0,8.4,0.7,12.3,2c1,0.3,1.9,0.7,2.9,1.1c0.6,0.2,1.1,0.5,1.7,0.8
	c-2.6,4.3-6.2,9.2-10.6,13.4c-4,3.9-8.4,7.2-12.7,10.4c-0.3,0.2-0.6,0.4-0.9,0.7c0.8,0.4,1.5,0.8,2.2,1.2c3.5-2.7,7.1-5.5,10.4-8.7
	c5.5-5.3,10-11.4,12.8-16.3c0,0,0,0,0,0c0.3,0.2,0.3,0.2,0.7,0.3c13.6,7.1,22.8,21.3,22.8,37.7c0,2.9-0.3,5.8-0.9,8.6
	c0.1-0.2,0.1-0.4,0.2-0.7c0,0,0-0.1,0-0.1c0.1-0.2,0.1-0.4,0.2-0.6c0,0,0,0,0,0c0.1-0.2,0.1-0.4,0.2-0.7c0,0,0-0.1,0-0.1
	c0-0.2,0.1-0.4,0.1-0.6c0,0,0-0.1,0-0.1c0-0.2,0.1-0.5,0.1-0.7c0,0,0-0.1,0-0.1c0-0.2,0.1-0.4,0.1-0.6c0,0,0-0.1,0-0.1
	c0-0.2,0.1-0.5,0.1-0.7c0,0,0,0,0-0.1c0-0.2,0.1-0.4,0.1-0.6c0-0.1,0-0.1,0-0.2c0-0.2,0.1-0.4,0.1-0.7c0,0,0,0,0,0
	c0-0.2,0.1-0.5,0.1-0.7c0-0.1,0-0.1,0-0.2c0-0.2,0-0.4,0.1-0.6c0,0,0-0.1,0-0.1c0-0.2,0-0.5,0.1-0.7c0-0.1,0-0.1,0-0.2
	c0-0.2,0-0.4,0-0.6c0-0.1,0-0.1,0-0.2c0-0.2,0-0.5,0-0.7c0,0,0-0.1,0-0.1c0-0.2,0-0.4,0-0.6c0-0.1,0-0.1,0-0.2c0-0.2,0-0.5,0-0.7
	C92.5,49.8,92.5,49.5,92.5,49.3z"/>
</svg>
