<?xml version="1.0" encoding="utf-8"?>
<!-- Generator: Adobe Illustrator 28.1.0, SVG Export Plug-In . SVG Version: 6.00 Build 0)  -->
<svg version="1.1" id="Layer_1" xmlns="http://www.w3.org/2000/svg" xmlns:xlink="http://www.w3.org/1999/xlink" x="0px" y="0px"
	 viewBox="0 0 100 100" style="enable-background:new 0 0 100 100;" xml:space="preserve">
<path style="fill:#76EFFF;" d="M26.38,43.66c-0.07-3.49,1.98-6.92,5.16-7.98c4.11-1.78,8.85-0.14,12.73,2.04
	c8.58,4.86,16.61,11.15,26.01,14.07c-8.23-1.96-15.94-6.08-23.46-10.18c-3.7-1.9-7.6-4.09-11.75-3.74c-4.16,0.28-7.2,4.03-8.01,8.06
	c0.52,2.71,2.05,5.22,3.68,7.44C28.37,50.7,26.36,47.3,26.38,43.66z"/>
<path style="fill:#01CEF4;" d="M27.05,45.93c0.82-4.03,3.85-7.78,8.01-8.06c4.15-0.35,8.05,1.84,11.75,3.74
	c7.52,4.1,15.22,8.22,23.46,10.18c2.35,0.63,4.75,1.21,6.9,2.47c-7.37,4.04-15.92,5.35-24.32,5.76c-7.61,0-15.85-1.42-22.14-6.65
	C29.11,51.15,27.58,48.65,27.05,45.93z"/>
</svg>
