<?xml version="1.0" encoding="utf-8"?>
<!-- Generator: Adobe Illustrator 28.1.0, SVG Export Plug-In . SVG Version: 6.00 Build 0)  -->
<svg version="1.1" id="Layer_1" xmlns="http://www.w3.org/2000/svg" xmlns:xlink="http://www.w3.org/1999/xlink" x="0px" y="0px"
	 viewBox="0 0 100 100" style="enable-background:new 0 0 100 100;" xml:space="preserve">
<path style="fill:#C8FF88;" d="M42.87,37.77c5.37-4.7,14.35-4.06,19.24,1.01c3.97,4.54,4.45,11.82,0.63,16.63
	c1.8-3.93,0.18-8.5-1.97-11.95c-1.82-3.1-5.51-4.28-8.86-4.76c-6.69-0.79-12.66,5.27-13.18,11.72
	C37.89,45.87,39.16,40.74,42.87,37.77z"/>
<path style="fill:#69CC00;" d="M51.91,38.7c3.35,0.48,7.03,1.66,8.86,4.76c2.15,3.45,3.77,8.02,1.97,11.95
	c-4.03,4.31-10.62,6.32-16.19,3.95c-4.09-1.19-7.11-4.79-7.82-8.95C39.25,43.96,45.22,37.91,51.91,38.7z"/>
</svg>
