<?xml version="1.0" encoding="utf-8"?>
<!-- Generator: Adobe Illustrator 28.1.0, SVG Export Plug-In . SVG Version: 6.00 Build 0)  -->
<svg version="1.1" id="Layer_1" xmlns="http://www.w3.org/2000/svg" xmlns:xlink="http://www.w3.org/1999/xlink" x="0px" y="0px"
	 viewBox="0 0 128 128" style="enable-background:new 0 0 128 128;" xml:space="preserve">
<style type="text/css">
	.st0{fill:#FEF6B1;}
	.st1{fill:#FFCE09;}
</style>
<g>
	<path class="st0" d="M109.03,56.62c-0.76-7.4-4.18-14.22-8.33-20.28c-7.16-9.69-18.26-16.44-30.18-18.3
		c-9.34-1.21-19.11,0.26-27.44,4.76c-11.06,5.64-19.53,16.16-22.53,28.23c0.15,0.27,0.46,0.82,0.62,1.1
		c0.99-2.25,2.42-4.27,3.44-6.51c4.6-9.84,13.7-16.83,23.39-21.25c8.18-3.73,17.64-3.77,26.21-1.38c0.01,1.26,0.25,2.64-0.52,3.75
		c-1.72,2.8-3.77,5.37-5.75,7.99c-1.28,1.7-3.36,2.8-4.15,4.85c4.77-4.1,9.24-8.56,13.02-13.6c0.43-0.54,0.87-1.07,1.34-1.58
		c1.31,0.36,2.66,0.48,4.02,0.48c-0.26,0.7-0.52,1.39-0.78,2.09c-1.73,4.31-5.19,7.57-8.3,10.9c-3.34,3.29-6.75,6.56-10.49,9.41
		c-2.32,1.8-4.54,3.8-6.29,6.18c0.26-0.01,0.79-0.05,1.05-0.06c2.6-1.89,5.6-3.25,7.56-5.91c5.32-4.46,10.25-9.35,15.04-14.36
		c1.64-1.81,2.87-3.94,4.17-5.99c11.49,5.74,19.19,17.11,22.98,29.12c1.92,5.14,1.39,10.7,1.45,16.08
		C109.36,67.15,109.62,61.86,109.03,56.62z"/>
	<path class="st0" d="M20.32,60.05c5.8-4.96,13.76-6.65,21.23-6.51c6.31-0.08,12.16,2.96,17.17,6.56
		c7.03,5.11,12.86,11.77,17.35,19.19c-5.33-6.57-10.58-13.41-17.63-18.25c-2.6-2.24-6.03-2.91-9.01-4.45
		c-4.69-2.83-10.46-1.9-15.58-1.03c-5.6,1.58-11.67,3.65-15.15,8.63C18.48,62.58,19,61.03,20.32,60.05z"/>
	<path class="st1" d="M48,24.37c8.18-3.73,17.64-3.77,26.21-1.38c0.01,1.26,0.25,2.64-0.52,3.75c-1.72,2.8-3.77,5.37-5.75,7.99
		c-1.28,1.7-3.36,2.8-4.15,4.85l-0.08,0.19c-3.93,3.48-8.01,6.81-12.18,9.99c-1.19,1.18-2.81,0.19-4.19-0.03
		c-8.06-2.03-16.78-0.94-24.21,2.72c-1.23,0.68-2.27,1.63-3.39,2.47c0.24-1.3,0.52-2.6,0.83-3.88c0.15,0.27,0.46,0.82,0.62,1.1
		c0.99-2.25,2.42-4.27,3.44-6.51C29.21,35.78,38.31,28.79,48,24.37z"/>
	<path class="st1" d="M79.94,33.14c1.64-1.81,2.87-3.94,4.17-5.99c11.49,5.74,19.19,17.11,22.98,29.12
		c1.92,5.14,1.39,10.7,1.45,16.08c-1.6,9.04-6.03,17.55-12.16,24.35c-2.24,2.17-4.49,4.48-7.31,5.88
		c-0.79-8.72-3.99-17.02-8.28-24.59c-3.2-5.96-7.52-11.24-12.28-16.01c-3.36-3.29-7.01-6.35-11.18-8.56c2.6-1.89,5.6-3.25,7.56-5.91
		C70.22,43.04,75.15,38.15,79.94,33.14z"/>
	<path class="st1" d="M33.85,55.55c5.12-0.87,10.88-1.8,15.58,1.03c2.98,1.55,6.4,2.21,9.01,4.45c7.05,4.84,12.3,11.68,17.63,18.25
		c1.09,1.23,1.73,2.78,2.49,4.24c1.7,3.46,3.54,6.9,4.51,10.65c0.98,3.49,1.61,7.07,2.23,10.64c-8.25,4.89-18.26,6.33-27.7,5.14
		c-10.75-1.63-21.2-7.41-27.32-16.46C29.17,82.35,35.11,72,42.43,64.08c1.69-2.17,4.03-3.8,5.42-6.2c-1.96-1.46-4.58-0.8-6.2,0.84
		c-6.69,6.15-12.38,13.82-14.58,22.76c-0.64,2.21-0.48,4.59-1.32,6.75c-4.69-7.09-7.13-15.55-7.04-24.04
		C22.18,59.2,28.26,57.13,33.85,55.55z"/>
</g>
</svg>
