<?xml version="1.0" encoding="utf-8"?>
<!-- Generator: Adobe Illustrator 28.1.0, SVG Export Plug-In . SVG Version: 6.00 Build 0)  -->
<svg version="1.1" id="Layer_1" xmlns="http://www.w3.org/2000/svg" xmlns:xlink="http://www.w3.org/1999/xlink" x="0px" y="0px"
	 viewBox="0 0 100 100" style="enable-background:new 0 0 100 100;" xml:space="preserve">
<path style="fill:#C8FF88;" d="M30.83,13.61c6.4-3.58,13.83-5.07,21.13-4.76c0.84,0.12,1.41,0.8,2.04,1.33
	c3.1,2.93,6.38,6.02,7.67,10.24c-0.22-0.06-0.67-0.16-0.9-0.22c-1.38-4.21-5.06-7.97-9.68-8.24c-3.9-0.19-8.34-0.77-11.78,1.49
	l-0.04,0.03c-2.79-0.65-5.28,0.91-7.38,2.53c4.27,1.3,8.72,2.04,12.83,3.87c5.98,2.23,12.1,5.47,18.68,4.6
	c1.13,0.41,1.26,2.05,1.9,3.02c-0.63-0.23-1.26-0.38-1.91-0.47c-6.03-0.4-11.84-2.3-17.41-4.57c-4.88-1.85-10.1-3.46-15.37-2.91
	c-4.43,0.99-7.97,4.23-10.83,7.6c-2.55,3.28-4.92,6.8-6.35,10.73c-0.35,0.85-0.68,1.72-1.25,2.46c-0.52-0.19-1.02-0.45-1.48-0.75
	C13.29,28.57,20.66,18.66,30.83,13.61z"/>
<path style="fill:#C8FF88;" d="M59.18,9.63c7.11,1.84,14.04,5.54,18.67,11.38c1.07,1.25-0.23,2.66-0.59,3.92
	c-2.42-5.22-7.75-8.24-12.7-10.7c0.17,0.99,0.35,1.99,0.58,2.99C63.4,14.49,61.39,11.98,59.18,9.63z"/>
<path style="fill:#C8FF88;" d="M82.23,25.82c4.85,5.98,7.48,13.54,8.24,21.15c-1.18-1.88-2.46-3.71-3.27-5.8
	c-1.71-4.27-3.87-8.41-6.82-11.96C81.04,28.09,81.65,26.97,82.23,25.82z"/>
<path style="fill:#69CC00;" d="M39.31,13.44c3.43-2.26,7.88-1.69,11.78-1.49c4.62,0.27,8.29,4.03,9.68,8.24
	C53.3,19.03,46.6,15.27,39.31,13.44z"/>
<path style="fill:#69CC00;" d="M64.57,14.22c4.94,2.46,10.27,5.48,12.7,10.7c-1.62,2.46-3.52,4.95-6.26,6.19
	c-1.02-4.99-3.42-9.49-5.85-13.9C64.91,16.22,64.74,15.22,64.57,14.22z"/>
<path style="fill:#69CC00;" d="M19.78,27.14c2.86-3.38,6.39-6.61,10.83-7.6c5.28-0.55,10.49,1.06,15.37,2.91
	c5.56,2.27,11.38,4.17,17.41,4.57c0.65,0.08,1.28,0.24,1.91,0.47c0.89,2.49,2.3,5.21,1.95,7.85c-5.14,3.66-11.62,4.58-17.79,4.48
	C42.32,39.9,35.15,39.02,28.04,40c-3.94,0.64-7.84,1.72-11.44,3.46c-2.59,1.24-4.79,3.11-7.18,4.68c0.04-2.92,0.59-5.8,1.13-8.66
	l0.15,0.09c0.46,0.31,0.96,0.56,1.48,0.75c0.57-0.74,0.9-1.61,1.25-2.46C14.86,33.94,17.23,30.42,19.78,27.14z"/>
<path style="fill:#69CC00;" d="M90.47,46.96c-1.18-1.88-2.46-3.71-3.27-5.8c-1.71-4.27-3.87-8.41-6.82-11.96
	c-0.9,1.16-1.88,2.28-2.58,3.58c-1.62,1.57-3.41,2.97-4.88,4.69c-0.7,0.87-0.15,1.73,0.74,2.13c7.3,2.24,12.58,8.39,16.47,14.68
	C90.56,51.88,90.69,49.4,90.47,46.96z"/>
<path style="fill:#69CC00;" d="M68.09,41.76c-1.68,0.35-3.33,0.83-4.9,1.52c-4.11,0.82-8.28,1.31-12.48,1.25
	c-9.53,0.13-19.44-1.7-28.61,1.74c-4.65,1.72-8.73,4.69-12.19,8.21c0.44,8.47,4.28,16.47,9.5,23.03c0.51,0.54,0.87,1.36,1.69,1.53
	c9.85-2.85,18.04-9.44,25.25-16.51c-3.97,9.06-11.57,16.39-20.78,19.98c2.58,2.7,5.85,4.62,9.34,5.9c6.01,2.05,12.56,3.62,18.9,2.3
	c1.48-1.45,2.71-3.14,4.19-4.6c6.46-7.87,9.64-17.97,10.51-28.01C69,52.67,69.2,47.13,68.09,41.76z"/>
<path style="fill:#69CC00;" d="M73.62,44.22c7.24,2.64,11.56,9.53,15.32,15.83c-0.44,3.85-2.3,7.37-4.09,10.76
	c-4.99,9.22-14.05,15.95-24.07,18.75c5.84-7,8.78-15.82,10.93-24.54C73.31,58.21,73.24,51.17,73.62,44.22z"/>
</svg>
