<?xml version="1.0" encoding="UTF-8"?>
<svg id="Layer_1" xmlns="http://www.w3.org/2000/svg" version="1.1" viewBox="0 0 1920 347.56">
  <!-- Generator: Adobe Illustrator 29.5.0, SVG Export Plug-In . SVG Version: 2.1.0 Build 137)  -->
  <defs>
    <style>
      .st0 {
        fill: #fff;
      }
    </style>
  </defs>
  <path class="st0" d="M1920,157.95c-32.41-1.22-75.31-11-89.82-43.39-19.1,5.83-42.64,5.07-50.95-16.15-7.09,4.65-14.57,6.6-22.68,3.04.21,9.22-7.03,18.85-16.09,20.74-8.71,1.81-15.84-1.87-23.25-5.6-5.58,20.63-21.59,34.84-43.79,32.18-3.44-.41-7.47-2.69-10.32-2.89-9.77-.67-13.05,3.82-23.53-3.62-2.01-1.43-4.53-5.24-6.14-5.97-4.64-2.11-14.53,1.42-18.65-5.55-22.29,27.15-62.16,16.7-72.15-16.16-12.64,8.9-29.23,11.58-42.34,2.02-9.75,21.49-34.81,33.31-56.7,38.67-30.69,7.5-73.95,8.1-99.23-13.42-3.37-2.87-5.67-6.5-8.46-9.47-.8-.85-.69-.92-2.09-.64-9.93,39.51-57.78,55.27-88.28,27.47-3.84,1.97-7.53,5.05-11.8,6.14-4.09,1.05-9.17.31-12.86,2.28-2.92,1.56-9.63,9.22-13.27,11.95-18.98,14.19-42.2,20.35-65.51,14.22-31.06-8.17-55.96-33.21-43.37-67.09-19.96,5.86-37.12-.45-49.06-17.03-20.22,9.9-42.4,11.03-62.38-.17-4.16,9.54-14.37,15.95-24.75,16.18,2.34,31.05-24.7,58.31-55.91,49.41-7.66,13.58-29.71,13.78-38.16.77-5.8-8.94-4.66-19.86-3.91-29.9-6.9-1.17-11.85-5.51-15.52-11.21-9.61,28.1-32.66,36.73-60.47,28.18-30.62-9.41-36.58-34.84-23.77-62.48-8.18,1.53-19.36.94-22.7-8.08-8.83,9.05-20.56,8.46-31.66,4.11-7.97,15.46-24.52,16.8-39.46,10.5-19.59-8.26-27.62-27.82-17.17-46.89-4.75,1.71-9.09,4.4-14.09,5.57-26,6.11-61.69-12.91-65.63-40.9-9.4,13.61-18.48,27.12-31.79,37.31-35.3,27.01-78.16,24.46-116.53,5.59-2.68-1.32-5.57-4.27-8.02-5.1-2.64-.9-5.5-.33-8.38-1.71-2.47-1.18-4.65-5.21-6.49-5.69-1.04-.27-12.7,5.32-15.67,6.18-13.66,3.96-26.23,3.24-38.42-4.48-14.07-8.9-15.73-22.64-16.32-38.16-5.59,9.86-17.95,11.1-27.74,7.06,1.18,12.09-6,18.17-17.16,20.19,16.13,35.33,11.35,72.47-24.55,91.97-17.71,9.62-36.36,12.69-55.68,5.9-5.85-2.05-11.01-5.51-16.14-8.86-43.34,45.21-123.35,57.28-178.74,28.18C9.63,161.67.48,156.93,0,154.41V0h1920v157.95Z"/>
</svg>