<?xml version="1.0" encoding="UTF-8"?>
<svg id="Layer_1" xmlns="http://www.w3.org/2000/svg" version="1.1" viewBox="0 0 1920 347.56">
  <!-- Generator: Adobe Illustrator 29.5.0, SVG Export Plug-In . SVG Version: 2.1.0 Build 137)  -->
  <defs>
    <style>
      .st0 {
        fill: #fff;
      }
    </style>
  </defs>
  <path class="st0" d="M-.74,181.68c32.42,1.22,75.34,11,89.85,43.41,19.1-5.83,42.65-5.07,50.97,16.16,7.09-4.65,14.57-6.61,22.68-3.05-.21-9.23,7.03-18.86,16.09-20.75s15.85,1.87,23.26,5.6c5.58-20.64,21.59-34.85,43.81-32.19,3.44.41,7.47,2.7,10.32,2.89,9.77.67,13.05-3.82,23.54,3.63,2.01,1.43,4.53,5.24,6.14,5.97,4.64,2.11,14.54-1.42,18.65,5.55,22.3-27.16,62.19-16.7,72.18,16.16,12.64-8.91,29.25-11.58,42.36-2.02,9.75-21.5,34.82-33.33,56.72-38.68,30.7-7.51,73.98-8.1,99.27,13.42,3.37,2.87,5.67,6.51,8.47,9.47.8.85.69.92,2.09.64,9.94-39.52,57.81-55.29,88.32-27.48,3.84-1.98,7.53-5.05,11.8-6.15s9.17-.31,12.86-2.28c2.92-1.56,9.63-9.23,13.28-11.95,18.98-14.19,42.22-20.36,65.53-14.22,31.07,8.17,55.98,33.23,43.39,67.12,19.97-5.87,37.14.45,49.08,17.03,20.23-9.91,42.42-11.04,62.41.17,4.16-9.55,14.37-15.95,24.76-16.18-2.34-31.06,24.71-58.33,55.94-49.43,7.66-13.59,29.72-13.79,38.18-.77,5.81,8.94,4.66,19.87,3.91,29.91,6.9,1.17,11.85,5.51,15.53,11.21,9.62-28.11,32.67-36.74,60.49-28.19,30.63,9.41,36.59,34.85,23.78,62.51,8.18-1.53,19.37-.94,22.7,8.08,8.84-9.06,20.57-8.47,31.67-4.11,7.98-15.46,24.53-16.81,39.47-10.51,19.59,8.26,27.63,27.83,17.17,46.91,4.75-1.71,9.1-4.4,14.09-5.58,26.01-6.11,61.72,12.92,65.65,40.91,9.4-13.62,18.48-27.13,31.8-37.32,35.31-27.02,78.19-24.47,116.57-5.59,2.68,1.32,5.57,4.27,8.02,5.1,2.65.9,5.5.33,8.39,1.71,2.47,1.18,4.65,5.22,6.49,5.7,1.04.27,12.71-5.32,15.68-6.18,13.66-3.96,26.24-3.24,38.44,4.48,14.07,8.9,15.73,22.64,16.32,38.17,5.59-9.86,17.95-11.11,27.75-7.06-1.18-12.1,6.01-18.18,17.17-20.2-16.13-35.34-11.35-72.5,24.56-92.01,17.71-9.62,36.37-12.69,55.7-5.9,5.85,2.06,11.02,5.51,16.14,8.86,43.36-45.23,123.4-57.3,178.81-28.19,2.82,1.48,11.97,6.22,12.45,8.74v162.36H-.74v-165.88Z"/>
</svg>